<?xml version="1.0" encoding="utf-8"?>
<!-- Generator: Adobe Illustrator 19.0.0, SVG Export Plug-In . SVG Version: 6.00 Build 0)  -->
<svg version="1.1" id="Layer_1" xmlns="http://www.w3.org/2000/svg" xmlns:xlink="http://www.w3.org/1999/xlink" x="0px" y="0px"
	 viewBox="0 0 500 500" style="enable-background:new 0 0 500 500;" xml:space="preserve">
<style type="text/css">
	.st0{fill:#FDD1A8;}
	.st1{fill:#FFFFFF;}
	.st2{fill:#D63346;}
	.st3{fill:#1D2C59;}
</style>
<circle id="XMLID_143_" class="st0" cx="250" cy="252.8" r="223.6"/>
<g id="XMLID_144_">
	<rect id="XMLID_205_" x="75.6" y="145.3" class="st1" width="340.2" height="211.5"/>
	<rect id="XMLID_204_" x="211.7" y="145" class="st2" width="204.3" height="16.6"/>
	<rect id="XMLID_203_" x="211.7" y="177.9" class="st2" width="204.3" height="16.6"/>
	<rect id="XMLID_202_" x="211.7" y="210.2" class="st2" width="204.3" height="16.6"/>
	<rect id="XMLID_201_" x="211.7" y="242.8" class="st2" width="204.3" height="16.6"/>
	<rect id="XMLID_200_" x="75.6" y="275.5" class="st2" width="340.4" height="16.6"/>
	<rect id="XMLID_199_" x="75.6" y="307.9" class="st2" width="340.4" height="16.6"/>
	<rect id="XMLID_198_" x="75.6" y="340.4" class="st2" width="340.4" height="16.6"/>
	<rect id="XMLID_197_" x="75.6" y="145.3" class="st3" width="160.8" height="114.1"/>
	<polygon id="XMLID_196_" class="st1" points="115.8,173.1 117.2,177.6 121.6,177.5 118.1,180.2 119.4,184.5 115.8,181.9 
		112.1,184.5 113.4,180.3 109.9,177.6 114.4,177.6 	"/>
	<polygon id="XMLID_195_" class="st1" points="89,173.1 90.4,177.7 94.8,177.6 91.2,180.3 92.6,184.6 88.9,182 85.3,184.6 
		86.6,180.3 83.1,177.7 87.6,177.7 	"/>
	<polygon id="XMLID_194_" class="st1" points="89,150.2 90.4,154.7 94.8,154.6 91.2,157.3 92.6,161.6 88.9,159 85.3,161.6 
		86.6,157.4 83.1,154.7 87.6,154.7 	"/>
	<polygon id="XMLID_193_" class="st1" points="115.8,150.2 117.2,154.7 121.6,154.6 118.1,157.3 119.4,161.6 115.8,159 112.1,161.6 
		113.4,157.4 109.9,154.7 114.4,154.7 	"/>
	<polygon id="XMLID_192_" class="st1" points="142.6,150.3 144,154.8 148.4,154.7 144.9,157.4 146.3,161.7 142.6,159.1 138.9,161.7 
		140.2,157.5 136.7,154.8 141.2,154.8 	"/>
	<polygon id="XMLID_191_" class="st1" points="169.5,150.3 170.8,154.8 175.3,154.7 171.7,157.4 173.1,161.7 169.4,159.1 
		165.8,161.7 167.1,157.5 163.6,154.8 168.1,154.8 	"/>
	<polygon id="XMLID_190_" class="st1" points="196.3,150.2 197.6,154.7 202.1,154.7 198.5,157.4 199.9,161.7 196.2,159.1 
		192.6,161.7 193.9,157.4 190.3,154.7 194.9,154.7 	"/>
	<polygon id="XMLID_189_" class="st1" points="102.4,161.7 103.8,166.2 108.2,166.1 104.6,168.8 106,173.1 102.4,170.5 98.7,173.1 
		100,168.9 96.5,166.2 101,166.2 	"/>
	<polygon id="XMLID_188_" class="st1" points="129.3,161.7 130.6,166.2 135.1,166.1 131.5,168.8 132.9,173.1 129.2,170.5 
		125.6,173.1 126.8,168.9 123.3,166.2 127.8,166.2 	"/>
	<polygon id="XMLID_187_" class="st1" points="156.1,161.8 157.4,166.3 161.9,166.2 158.3,168.9 159.7,173.2 156,170.6 152.4,173.2 
		153.7,168.9 150.1,166.3 154.7,166.3 	"/>
	<polygon id="XMLID_186_" class="st1" points="182.9,161.8 184.3,166.3 188.7,166.2 185.1,168.9 186.5,173.2 182.8,170.6 
		179.2,173.2 180.5,168.9 177,166.3 181.5,166.3 	"/>
	<polygon id="XMLID_185_" class="st1" points="209.7,161.7 211.1,166.2 215.5,166.1 211.9,168.9 213.3,173.2 209.6,170.5 206,173.2 
		207.3,168.9 203.8,166.2 208.3,166.2 	"/>
	<polygon id="XMLID_184_" class="st1" points="102.4,184.2 103.8,188.8 108.2,188.7 104.6,191.4 106,195.7 102.4,193.1 98.7,195.7 
		100,191.4 96.5,188.8 101,188.8 	"/>
	<polygon id="XMLID_183_" class="st1" points="129.3,184.2 130.6,188.8 135.1,188.7 131.5,191.4 132.9,195.7 129.2,193.1 
		125.6,195.7 126.8,191.4 123.3,188.8 127.8,188.8 	"/>
	<polygon id="XMLID_182_" class="st1" points="156.1,184.3 157.4,188.8 161.9,188.7 158.3,191.5 159.7,195.8 156,193.2 152.4,195.8 
		153.7,191.5 150.1,188.8 154.7,188.8 	"/>
	<polygon id="XMLID_181_" class="st1" points="182.9,184.3 184.3,188.8 188.7,188.7 185.1,191.5 186.5,195.8 182.8,193.2 
		179.2,195.8 180.5,191.5 177,188.8 181.5,188.8 	"/>
	<polygon id="XMLID_180_" class="st1" points="209.7,184.3 211.1,188.8 215.5,188.7 211.9,191.4 213.3,195.7 209.6,193.1 206,195.7 
		207.3,191.5 203.8,188.8 208.3,188.8 	"/>
	<polygon id="XMLID_179_" class="st1" points="142.6,173 143.9,177.5 148.4,177.4 144.8,180.1 146.2,184.4 142.5,181.8 138.9,184.4 
		140.1,180.1 136.6,177.5 141.1,177.5 	"/>
	<polygon id="XMLID_178_" class="st1" points="169.4,173 170.7,177.6 175.2,177.5 171.6,180.2 173,184.5 169.3,181.9 165.7,184.5 
		167,180.2 163.4,177.6 167.9,177.6 	"/>
	<polygon id="XMLID_177_" class="st1" points="196.2,173 197.6,177.6 202,177.5 198.4,180.2 199.8,184.5 196.1,181.9 192.5,184.5 
		193.8,180.2 190.3,177.6 194.8,177.6 	"/>
	<polygon id="XMLID_176_" class="st1" points="223,173 224.4,177.5 228.8,177.4 225.2,180.2 226.6,184.5 222.9,181.8 219.3,184.5 
		220.6,180.2 217.1,177.5 221.6,177.5 	"/>
	<polygon id="XMLID_175_" class="st1" points="88.9,195.7 90.2,200.2 94.7,200.1 91.1,202.8 92.5,207.1 88.8,204.5 85.2,207.1 
		86.5,202.9 82.9,200.2 87.5,200.2 	"/>
	<polygon id="XMLID_174_" class="st1" points="115.7,195.7 117.1,200.2 121.5,200.1 117.9,202.8 119.3,207.1 115.7,204.5 112,207.1 
		113.3,202.9 109.8,200.2 114.3,200.2 	"/>
	<polygon id="XMLID_173_" class="st1" points="142.5,195.8 143.9,200.3 148.3,200.2 144.7,202.9 146.1,207.2 142.5,204.6 
		138.8,207.2 140.1,203 136.6,200.3 141.1,200.3 	"/>
	<polygon id="XMLID_172_" class="st1" points="169.4,195.8 170.7,200.3 175.2,200.2 171.6,202.9 173,207.2 169.3,204.6 165.7,207.2 
		166.9,203 163.4,200.3 167.9,200.3 	"/>
	<polygon id="XMLID_171_" class="st1" points="196.2,195.7 197.5,200.2 202,200.1 198.4,202.9 199.8,207.2 196.1,204.6 192.5,207.2 
		193.7,202.9 190.2,200.2 194.7,200.2 	"/>
	<polygon id="XMLID_170_" class="st1" points="102.3,207.2 103.6,211.7 108.1,211.6 104.5,214.4 105.9,218.7 102.2,216 98.6,218.7 
		99.9,214.4 96.3,211.7 100.9,211.7 	"/>
	<polygon id="XMLID_169_" class="st1" points="129.1,207.2 130.5,211.7 134.9,211.6 131.3,214.4 132.7,218.7 129.1,216 125.4,218.7 
		126.7,214.4 123.2,211.7 127.7,211.7 	"/>
	<polygon id="XMLID_168_" class="st1" points="155.9,207.3 157.3,211.8 161.7,211.7 158.1,214.5 159.5,218.7 155.9,216.1 
		152.2,218.7 153.5,214.5 150,211.8 154.5,211.8 	"/>
	<polygon id="XMLID_167_" class="st1" points="182.8,207.3 184.1,211.8 188.6,211.7 185,214.5 186.4,218.7 182.7,216.1 179.1,218.7 
		180.3,214.5 176.8,211.8 181.3,211.8 	"/>
	<polygon id="XMLID_166_" class="st1" points="209.6,207.3 210.9,211.8 215.4,211.7 211.8,214.4 213.2,218.7 209.5,216.1 
		205.9,218.7 207.1,214.4 203.6,211.8 208.1,211.8 	"/>
	<polygon id="XMLID_147_" class="st1" points="223.1,150.2 224.5,154.7 228.9,154.7 225.3,157.4 226.7,161.7 223.1,159.1 
		219.4,161.7 220.7,157.4 217.2,154.7 221.7,154.7 	"/>
	<polygon id="XMLID_154_" class="st1" points="89,218.5 90.4,223 94.8,222.9 91.2,225.7 92.6,230 88.9,227.3 85.3,230 86.6,225.7 
		83.1,223 87.6,223 	"/>
	<polygon id="XMLID_153_" class="st1" points="115.8,218.5 117.2,223 121.6,222.9 118.1,225.7 119.5,230 115.8,227.3 112.1,230 
		113.4,225.7 109.9,223 114.4,223 	"/>
	<polygon id="XMLID_152_" class="st1" points="142.7,218.6 144,223.1 148.5,223 144.9,225.8 146.3,230 142.6,227.4 138.9,230 
		140.2,225.8 136.7,223.1 141.2,223.1 	"/>
	<polygon id="XMLID_151_" class="st1" points="169.5,218.6 170.8,223.1 175.3,223 171.7,225.8 173.1,230 169.4,227.4 165.8,230 
		167.1,225.8 163.6,223.1 168.1,223.1 	"/>
	<polygon id="XMLID_150_" class="st1" points="196.3,218.6 197.6,223.1 202.1,223 198.5,225.7 199.9,230 196.2,227.4 192.6,230 
		193.9,225.7 190.4,223.1 194.9,223.1 	"/>
	<polygon id="XMLID_165_" class="st1" points="102.4,229.9 103.8,234.4 108.2,234.3 104.6,237 106,241.3 102.4,238.7 98.7,241.3 
		100,237.1 96.5,234.4 101,234.4 	"/>
	<polygon id="XMLID_164_" class="st1" points="129.3,229.9 130.6,234.4 135.1,234.3 131.5,237 132.9,241.3 129.2,238.7 125.6,241.3 
		126.8,237.1 123.3,234.4 127.8,234.4 	"/>
	<polygon id="XMLID_163_" class="st1" points="156.1,230 157.4,234.5 161.9,234.4 158.3,237.1 159.7,241.4 156,238.8 152.4,241.4 
		153.7,237.1 150.1,234.5 154.7,234.5 	"/>
	<polygon id="XMLID_162_" class="st1" points="182.9,230 184.3,234.5 188.7,234.4 185.1,237.1 186.5,241.4 182.8,238.8 179.2,241.4 
		180.5,237.1 177,234.5 181.5,234.5 	"/>
	<polygon id="XMLID_161_" class="st1" points="209.7,229.9 211.1,234.4 215.5,234.3 211.9,237.1 213.3,241.4 209.6,238.8 206,241.4 
		207.3,237.1 203.8,234.4 208.3,234.4 	"/>
	<polygon id="XMLID_149_" class="st1" points="223.1,218.6 224.5,223.1 228.9,223 225.3,225.7 226.7,230 223.1,227.4 219.4,230 
		220.7,225.7 217.2,223.1 221.7,223.1 	"/>
	<polygon id="XMLID_160_" class="st1" points="89,241.3 90.3,245.9 94.8,245.8 91.2,248.5 92.6,252.8 88.9,250.2 85.2,252.8 
		86.5,248.5 83,245.9 87.5,245.9 	"/>
	<polygon id="XMLID_159_" class="st1" points="115.8,241.3 117.1,245.9 121.6,245.8 118,248.5 119.4,252.8 115.7,250.2 112.1,252.8 
		113.4,248.5 109.9,245.9 114.4,245.9 	"/>
	<polygon id="XMLID_158_" class="st1" points="142.6,241.4 144,245.9 148.4,245.8 144.8,248.6 146.2,252.9 142.5,250.3 138.9,252.9 
		140.2,248.6 136.7,245.9 141.2,245.9 	"/>
	<polygon id="XMLID_157_" class="st1" points="169.4,241.4 170.8,245.9 175.2,245.8 171.7,248.6 173,252.9 169.4,250.3 165.7,252.9 
		167,248.6 163.5,245.9 168,245.9 	"/>
	<polygon id="XMLID_156_" class="st1" points="196.2,241.4 197.6,245.9 202,245.8 198.5,248.5 199.8,252.8 196.2,250.2 192.5,252.8 
		193.8,248.6 190.3,245.9 194.8,245.9 	"/>
	<polygon id="XMLID_155_" class="st1" points="223.1,241.4 224.4,245.9 228.9,245.8 225.3,248.5 226.7,252.8 223,250.2 219.4,252.8 
		220.7,248.6 217.1,245.9 221.6,245.9 	"/>
</g>
</svg>
