<?xml version="1.0" encoding="utf-8"?>
<!-- Generator: Adobe Illustrator 19.0.0, SVG Export Plug-In . SVG Version: 6.00 Build 0)  -->
<svg version="1.1" id="Layer_1" xmlns="http://www.w3.org/2000/svg" xmlns:xlink="http://www.w3.org/1999/xlink" x="0px" y="0px"
	 viewBox="0 0 500 500" style="enable-background:new 0 0 500 500;" xml:space="preserve">
<style type="text/css">
	.st0{fill:#FDD1A8;}
	.st1{fill:#FCF497;}
	.st2{fill:#EF6477;}
</style>
<circle id="XMLID_142_" class="st0" cx="250" cy="247" r="223.6"/>
<g id="XMLID_104_">
	<path id="XMLID_90_" class="st1" d="M169.7,240.2v110.3c0,5.3-4.4,9.7-9.7,9.7h0c-5.3,0-9.7-4.4-9.7-9.7V240.2
		c0-5.3,4.4-9.7,9.7-9.7h0C165.4,230.5,169.7,234.9,169.7,240.2z"/>
	<path id="XMLID_100_" class="st1" d="M192.9,225.2v110.3c0,5.3-4.4,9.7-9.7,9.7h0c-5.3,0-9.7-4.4-9.7-9.7V225.2
		c0-5.3,4.4-9.7,9.7-9.7h0C188.6,215.5,192.9,219.9,192.9,225.2z"/>
	<path id="XMLID_101_" class="st1" d="M217,240.2v110.3c0,5.3-4.4,9.7-9.7,9.7h0c-5.3,0-9.7-4.4-9.7-9.7V240.2
		c0-5.3,4.4-9.7,9.7-9.7h0C212.6,230.5,217,234.9,217,240.2z"/>
	<path id="XMLID_102_" class="st1" d="M240.5,254.5v110.3c0,5.3-4.4,9.7-9.7,9.7h0c-5.3,0-9.7-4.4-9.7-9.7V254.5
		c0-5.3,4.4-9.7,9.7-9.7h0C236.1,244.9,240.5,249.2,240.5,254.5z"/>
	<path id="XMLID_99_" class="st1" d="M147.3,300.1v95.6c0,5.9-4.4,10.8-9.7,10.8h0c-5.3,0-9.2-8.7-9.2-14.6l-0.4-91.7
		c0-5.9,4.4-10.8,9.7-10.8h0C142.9,289.3,147.3,294.2,147.3,300.1z"/>
	<path id="XMLID_116_" class="st1" d="M126.9,374.5c0,0-1.9,23.9,13.7,48.7c-0.1,13,0,10.3,0.1,18.9l82,26.8v-40.6
		c0,0,17.8-48.4,17.8-64.6c0-16.2,0-50.7,0-50.7l-112.8,1.5"/>
</g>
<g id="XMLID_117_">
	<path id="XMLID_141_" class="st1" d="M372.1,285.5V173.1c0-5.3,4.4-9.7,9.7-9.7h0c5.3,0,9.7,4.4,9.7,9.7v112.4
		c0,5.3-4.4,9.7-9.7,9.7h0C376.5,295.1,372.1,290.8,372.1,285.5z"/>
	<path id="XMLID_140_" class="st1" d="M348.9,300.7V188.3c0-5.3,4.4-9.7,9.7-9.7h0c5.3,0,9.7,4.4,9.7,9.7v112.4
		c0,5.3-4.4,9.7-9.7,9.7h0C353.3,310.3,348.9,306,348.9,300.7z"/>
	<path id="XMLID_139_" class="st1" d="M324.9,285.5V173.1c0-5.3,4.4-9.7,9.7-9.7h0c5.3,0,9.7,4.4,9.7,9.7v112.4
		c0,5.3-4.4,9.7-9.7,9.7h0C329.2,295.1,324.9,290.8,324.9,285.5z"/>
	<path id="XMLID_138_" class="st1" d="M301.4,270.9V158.5c0-5.3,4.4-9.7,9.7-9.7l0,0c5.3,0,9.7,4.4,9.7,9.7v112.4
		c0,5.3-4.4,9.7-9.7,9.7l0,0C305.8,280.6,301.4,276.2,301.4,270.9z"/>
	<path id="XMLID_133_" class="st1" d="M395.6,224.4v-97.1c0-6,4.4-10.9,9.7-10.9l0,0c5.3,0,9.2,8.8,9.2,14.9l0.4,93.2
		c0,6-4.4,10.9-9.7,10.9l0,0C400,235.4,395.6,230.5,395.6,224.4z"/>
	<path id="XMLID_132_" class="st1" d="M415,148.8c0,0,3.9-27-13.7-49.5c0-16.6,0-17,0-17l-82.1-31.1v42.9c0,0-17.8,49.2-17.8,65.6
		s0,51.5,0,51.5l112.8-1.6"/>
</g>
<path id="XMLID_146_" class="st1" d="M140.7,442.1c0,0,38.2,22.7,82,26.8"/>
<path id="XMLID_145_" class="st1" d="M319.2,51.2V34.3c0,0,46.1,13.5,82.1,48"/>
<path id="XMLID_148_" class="st2" d="M260.4,307.9c1.6,2.8,5.1,2.8,6.7,0c12.7-22.2,57.5-49.8,57.5-85.5c0-24.6-13.6-36-30.4-36
	c-16.8,0-30.4,16.1-30.4,36c0-19.9-13.6-36-30.4-36s-30.4,11.4-30.4,36C202.8,258.1,247.7,285.7,260.4,307.9z"/>
</svg>
