<?xml version="1.0" encoding="utf-8"?>
<!-- Generator: Adobe Illustrator 19.0.0, SVG Export Plug-In . SVG Version: 6.00 Build 0)  -->
<svg version="1.1" id="Layer_1" xmlns="http://www.w3.org/2000/svg" xmlns:xlink="http://www.w3.org/1999/xlink" x="0px" y="0px"
	 viewBox="0 0 500 500" style="enable-background:new 0 0 500 500;" xml:space="preserve">
<style type="text/css">
	.st0{fill:#FDD1A8;}
	.st1{fill:#00A6E5;}
	.st2{fill:#FFFFFF;}
	.st3{fill:#FFFFFF;stroke:#FFFFFF;stroke-miterlimit:10;}
	.st4{fill:#F0D68D;}
	.st5{fill:#FFF8B6;}
	.st6{fill:#0F53A5;}
	.st7{fill:#404040;}
</style>
<g id="XMLID_86_">
	<path id="XMLID_206_" class="st0" d="M249.3,477.2c-123.5,0-223.6-100.1-223.6-223.6S125.8,30,249.3,30s223.6,100.1,223.6,223.6
		S372.7,477.2,249.3,477.2"/>
	<circle id="XMLID_103_" class="st1" cx="249.1" cy="245.3" r="177.3"/>
	<path id="XMLID_62_" class="st2" d="M423.3,209.7c0.1,0.4-0.2-0.5-0.6-0.5c-0.4-0.1-0.7-1-1.2-0.6c-0.5,0.3-0.6,0.7-0.7,0.5
		c-0.1-0.2-0.5-0.8-0.8-1c-0.3-0.1-0.3-0.1-0.6,0.3c-0.3,0.4-0.6,0.3-1.1-0.1c-0.5-0.3-0.1-0.3-0.8-0.3s-0.8,0.1-1.3-0.2
		c-0.5-0.3-0.5-0.3-0.6-0.8s0.1-1.1-0.5-1c-0.6,0.2-1.5-0.7-0.9-1.2s0.7-0.6,0.3-1c-0.3-0.4-0.1-1.5-0.5-1.4
		c-0.4,0.1-0.9-0.1-1.1,0.7c-0.8-0.1-0.8-0.7-1-0.7c-0.3,0-0.2-0.2-0.4,0.4c-0.2,0.6-0.1,0.8-0.4,0.9c-0.3,0-1.1-0.2-0.9-1
		c0.2-0.8,0.3-1.1,0-1.4c-0.3-0.3-0.5-0.7,0.3-0.7c0.8-0.1,0.9,0.2,1.4-0.3s0.7-0.6,0.2-0.8s-0.6-0.6-1.1-1.1
		c-0.5-0.5-1.4-1.7-1.6-2.1c-0.3-0.4-0.6-0.5-0.4-1.1c0.2-0.6-0.1-1.1,0-1.6s0-0.7-0.5-0.9c-0.5-0.2-0.5-0.5-0.8-0.2
		c-0.3,0.3-0.5,0.4-0.9,0.1c-0.4-0.3-0.8-0.8-1.9-0.7c-0.4-0.4-0.1-1.8-0.3-1.7c-0.2,0.2-0.2-0.1-0.6-0.4s-0.3-0.7,0-1.2
		c0.3-0.5,0.1-0.7-0.2-1c-0.3-0.3-0.6-0.5,0-0.8c0.3-0.6,0.2-0.7,0.2-1.4s-0.3-2.5-0.1-2.7c0.3-0.2,0.6-0.3,0.7-0.7
		c0.1-0.4,0.4-0.5,0.1-0.9s-0.1-0.9,0.4-0.9c0.5,0,0.5-0.4,0.9-0.4s1.2,0.3,1.5,0c0.3-0.3,0.4-0.8,0-0.9c-0.5,0.1-0.5-0.1-0.9,0
		c-0.4,0.1-0.7,0-0.9-0.2c-0.2-0.3-0.1-0.9-0.4-0.9c-0.3,0-1-0.3-0.5-0.9s1.2-0.9,1.4-1.4s1.3-1.4,1.9-2.7c0.6-1.3,1.4-1.2,1.6-1.7
		l0.6-0.7C410.3,170.6,420,190.8,423.3,209.7z"/>
	<path id="XMLID_63_" class="st2" d="M425.5,224.2c0.1,0.6-1.4,0.3-1.7,0.1s-0.6-0.5-0.9-0.7c-0.3-0.2-0.8-0.4-1.1-0.7
		c-0.3-0.3-1.1-0.9-1.5-1.1s-0.7-0.6-1-0.7c-0.3-0.1,0.1-0.7,0.5-0.8c0.4-0.1,0.3-0.3,0.6-0.7c0.3-0.3,0.4-0.5,0.7-0.8
		c0.3-0.3,0.3-0.4,0.2-0.6c0-0.2-0.1-0.3-0.3-0.4c-0.2-0.1-0.2-0.5,0.1-0.6c0.4-0.1,0.4-0.3,0.8-0.3c0.4,0,0.9,0.1,0.9-0.3
		c0-0.4,0.1-0.7-0.5-0.7s-1-0.6-0.7-0.9c0.3-0.3,0.1-1,1.2-0.7c1.1,0.3,0.9,0.2,0.9-0.3c0-0.2,0.1-0.3,0.2-0.4
		C424,213.8,425.2,220.7,425.5,224.2z"/>
	<path id="XMLID_52_" class="st2" d="M385.7,357.2c-0.6,0.7-0.7-1-0.8-1.7s-0.7-1.1-0.6-1.7s-0.1-0.5-0.8-1s-1-1.3-1.1-2.7
		s0.3-1.6-0.3-3s-0.7-2.2-0.7-2.9c-0.1-0.7,0.5-3.1-0.7-4c-1.1-0.9-1.1-2.1-1.4-2.8c-0.3-0.7-1.2-1-1.5-1.9c-0.3-0.9-0.5-1-0.4-1.8
		c0.1-0.9,0.5-2.2,0.5-3.2c-0.1-1,0.1-1.8,0.1-2.5s1.4-2.6,2.1-2.8s1-1.1,0.8-1.8c-0.2-0.7,0.7-1.1,0.3-1.8
		c-0.4-0.7-1.4-1.7-1.4-2.5c0-0.7,0.6-2.1-0.2-3.4c-0.9-1.3-0.5-1.5-0.9-1.8c-0.4-0.3-0.3-0.4-0.9-1.2c-0.6-0.8-0.5-1.4-1.5-2.3
		c-1-0.9-3.9-3.6-3.6-3.7c0.3-0.1,0.3-0.4,0.1-0.7c-0.3-0.3,0.1-0.5,0.3-0.9c0.2-0.5,0.5-1.3,0.6-1.7c0.1-0.3,0.1-1.5,0.5-1.9
		c0.3-0.4,0.6-2.4,0.4-2.7c-0.2-0.3,0.1-0.9-0.5-1.3c-0.5-0.4-0.5-1.1-0.9-0.9s-0.8-0.3-1-0.9c-0.2-0.6-0.4,0.1-1,0.4
		s-0.5-0.6-1.3-0.1s-1.1,0.7-1.5,0.3c-0.5-0.4-0.9,0.1-1-0.7s-0.3-1-1-0.8c-0.3-0.7-0.4-0.7-1.3-1.3c-0.9-0.5-1.5-1.1-2.8-0.5
		c-1.3,0.6-2.1,0.5-2.5,0.7c-0.5,0.3-0.6-0.5-1-0.2c-0.4,0.3-0.8,0.9-1.6,0.8c-0.8-0.1-1,0-1.5,0.5c-0.5,0.5-0.9,0.6-1.7,0.3
		c-0.9-0.3-1.4,0-2.5-0.2c-1-0.2-2.3,0.5-3.2,0.7c-0.9,0.2-1.4,0.4-2.2,0.8c-0.8,0.4-1.1,0.6-1.8,0.2s-2.2-1.4-1.6-1.5
		c0.6-0.1,1.5,0.1,1.5-0.3s-0.2-1.5-0.5-1.7c-0.3-0.2-1-0.3-1.7-0.1s-1,0.4-1.8-0.2c-0.9-0.6-0.3-0.6-1.1-0.9
		c-0.8-0.3-1.1-0.1-1.6-0.3s-0.7-0.5,0-0.7c0.7-0.2,0.3-0.5,0.2-0.9c-0.1-0.3-0.1-0.5-0.4-0.6c-0.3-0.2-0.7-0.4-0.9-0.1
		c-0.2,0.3-0.7-0.9-1.1-1.3c-0.3-0.4-0.1-1.2-0.9-1.4c-0.8-0.2-1.3-1.1-1.9-1.6s-0.1-1.8-1.3-1.8s-1-0.9-0.6-1
		c0.4-0.1,0.1-1,0.1-1.4c-0.1-0.3-0.6,0.1-1-0.7c-0.4-0.7-0.1-2.2,0.3-2.3s1-0.3,0.9-1.1s0.2-1.1,0.5-1.9s0.2-1.2-0.2-1.7
		c-0.3-0.5-0.2-1.7-0.5-2.2c-0.3-0.5,0-0.9,0.2-1.2c0.2-0.3-0.1-1-0.9-1s-0.7-0.6-0.5-0.9c0.2-0.3,0.5-1.3,1.1-2.1
		c0.5-0.8,0.7-1.7,1-2c0.3-0.3,0.6-0.5,0.8-0.3c0.2,0.2,0.4,0.6,1,0.5c0.6-0.2,1.7,0.2,2-0.2c0.3-0.4,0.7-0.8,0.2-1.1
		c-0.5-0.3-0.6-0.6-1.1-0.5s-1.1,0.2-1-0.5s-0.2-1.5,0.1-1.7c0.3-0.2,0.6-0.2,0.9-0.7c0.3-0.5,1.3-1.2,1.4-1.9
		c0.1-0.7,0.2-1.7,0.9-1.5c0.7,0.2,0.7,0.2,0.7,0.2s1.7-0.5,2.5-1.1c0.8-0.6,2.4-1.7,2.3-2.5c-0.1-0.8-0.6-3.3,0.5-4.4
		s1.8-1.8,2.4-2.3c0.6-0.4,2.7-1.3,2.7-2.3c0-1,0.2-2,0.6-1.4c0.5,0.6,2.9,1,3.6,0.8s0.6-0.8,1.5-0.3s0.5,0.6,1.1,0.2
		c0.7-0.5,1.4-1.2,2-1.2s2-1.5,2.6-1.4c0.6,0.1,2.9,0.5,3.2,0.3c0.3-0.2,0.6-0.6,0.9-0.6c0.3,0,1.8-0.1,1.9,0c0.1,0.1,0.9,1,1.3,0.5
		s1.8-0.6,2.2-0.5c0.5,0.1,0.5,1,1,0.7s0.5-0.5,0.7-0.8c0.2-0.2,0.5-0.6,0.9-0.6c0.3,0.1,1-0.6,1.4,0c0.4,0.6,0.6,0.9,0.9,0.7
		s0.1-0.7,0.4-0.6c0.3,0.2,0,0.5,0,0.7s-0.5,0.4-0.2,1c0.3,0.6,0.1,1.1,0.8,1.5s0.2,0.8,0,1.1c-0.2,0.3-0.9,0.3-1,0.8
		c-0.2,0.5,0.3,1,1,1.3c0.7,0.2,1.6,1.2,2.1,1.4s1.1-0.1,1.7-0.2c0.6-0.2,1.1,0,1.8,0.6c1,0.3,0.8-0.2,1,0.3
		c0.2,0.5,0.3,1.5,0.9,1.8s2.6,0.6,3.3,1s1.3,1,1.7,1c0.5-0.1,2.1-0.9,2.2-1.4c0.1-0.5-0.4-1.4,0-1.8s0.5-1.3,0.9-1.3
		c0.3,0,0.9-0.7,1-0.3s0.8,0.5,1.1,0.2c0.3-0.3,0.7-0.9,1-0.6c0.3,0.2,0.4,0.8,0.7,1.6c0.3,0.8,0.9,0.8,1.2,0.5
		c0.3-0.3,0.5-0.7,0.7-0.2c0.3,0.5,0.9,0.8,1.3,0.7c0.5-0.1,0.6,0.2,1.1,0.2s1.1,0.2,1.8,0.3c0.7,0.1,0.7,0.2,1.5,0.4
		c0.7,0.2,1,0.1,1.5,0.3c0.5,0.2,0.7,0.2,1.2-0.6c0.5-0.8,1.2-0.5,1.9-0.7s1.4-0.7,1.8,0c0.4,0.7,0.7,1.3,0.7,2.4
		c-0.1,1.1-0.1,1.4,0.5,1.8c0.3,0.7,0.4,1.4,0.7,1.7c0.3,0.3,1.4,1.6,1.5,2.2s1.1,2.4,2.8,3.7c1.1,1.3,1.7,1.1,1.4,1.5
		c-0.2,0.4-0.7,0.3-0.5,0.8c0.2,0.5,0.7,0.5,1.1,1.3c0.4,0.8,1.3,1.1,1.3,1.3s0.5,0.8,0.3,1.8c-0.2,1,0.6,1.8,0.8,2.2
		c0.2,0.3-0.2,1.8,0.4,2.2c0.6,0.3,1.1,0.6,1.5,1c0.4,0.3,0.9,1,1,1.4c0.1,0.4,0.3,1.4,0,1.6c-0.3,0.2-2-0.1-2,0.4s-0.2,1.6,0.3,1.4
		c0.5-0.2,1.5-0.1,1.9,0c0.3,0.1,1.1-0.3,1.4,0C423.4,277.4,415.1,324.5,385.7,357.2z"/>
	<path id="XMLID_98_" class="st3" d="M129.7,203.6c0.6,0.3,1.4,2,1.8,1.2c0.3-0.8,0.9-1.3,0-2c-0.9-0.7-0.8-1.1-0.1-1.1
		c0.7,0,46.7,0.6,46.4,0s0-0.8,0.8,0c0.8,0.8,2.9,0.5,3.4,0.9s1.1,1.1,1.8,1.1c0.7,0.1,1.5-0.4,1.7,0.2c0.3,0.5-0.1,0.6-0.7,1
		s-1,0.4-1.5,0.8c-0.5,0.4-1.6,1.5-1,1.6c0.5,0.2,1,0,1.3-0.3c0.3-0.3,0.5-0.7,0.8-0.3c0.2,0.4,0.2,0.7,0.4,1c0.3,0.3,0.4,0.2,1-0.3
		s1-1.1,1.3-1c0.3,0.1,0.6,0.2,1-0.3c0.4-0.5,0.7-1.1,0.8-0.8s0,0.8,0.5,1.1s0.9,0.8,1.1,0.8s0.6,0.1,1.2,0.1
		c0.7-0.1,0.8,0.1,1.3-0.2c0.5-0.2,0.6-0.5,1-0.1c0.4,0.4,0.7,0.8,1.3,0.8c0.3,0.6-0.3,0.4-0.9,0.4c-0.6,0-0.9-0.2-1.5,0
		c-0.6,0.2-0.7,0.1-1.1,0.5c-0.4,0.4-1.3,0.4-1.6,0.5c-0.3,0.1-0.6,0.3-0.4,0.7s0.7,0.7,0.4,1.8c-0.3,1.1-0.6,1.6-0.7,2.2
		s-0.3,0.4-0.3,1.2c0.1,0.8-0.2,1.3,0.1,1.8c0.3,0.5,0.5,0.7,0.9,1.1c0.3,0.5,0.8,0.4,1.2-0.3c0.4-0.7,0.6-1.4,0.5-2
		s-0.2-0.5,0.1-1.3c0.2-0.8,0.1-1.1,0.5-1.8c0.4-0.7,1.5-2,1.9-2.4c0.4-0.4,0.7-0.8,1-0.1c0.3,0.7,0.9,0.6,1,1s-0.3,0.3,0,0.9
		c0.3,0.5,0.8,0.6,0.4,0.9c-0.4,0.3-0.8,0.8-0.5,1.2c0.3,0.4,0.3,0.6,0.7,0.3s0.9-0.6,1-0.2s-0.1,0.6,0,0.9c0.1,0.3,0.5,0.1,0.5,0.4
		c0,0.4,0.2,1.2,0,1.6s-0.9,0.3-1.1,0.4c-0.3,0.1-0.8,0.1-0.4,0.8s0.8,0.9,1.1,0.7c0.3-0.2,1-0.1,1.5-0.3s0.5-0.6,1.2-0.5
		s1.3-0.4,1.8-0.8c0.5-0.4,0.7-0.5,1.2-1.5c0.5-1,0.8-1.3,1.5-1.2c0.8,0.1,1.4,0.1,1.8,0s0.9-0.3,1.1-1c0.2-0.7,2-2,2.5-2.4
		c0.5-0.4,1.9-0.3,3-0.2c1.1,0.1,2.4,0.3,2.8,0c0.4-0.3,0.6-0.8,1.2-0.8s0.7,0.1,0.9-0.6c0.2-0.7,0.8-1.3,0.8-2.1
		c0-0.8,0.2-1.7,0.6-1.9s0.8-0.6,1.1-0.1c0.4,0.5,1.1,0.1,1.4,0.4c0.3,0.3,0.1,0.6,0,1.3c-0.1,0.7-0.4,0.8-0.2,1.5s0.8,1.6,1.2,1.7
		c0.4,0.2,0.5,0.3,0.6,0.7s-0.1,0.5-0.8,0.9s-1.1,0.4-2.1,0.7c-1,0.3-2.4,0.8-2.9,1.5c-0.5,0.7-0.9,2.6-0.5,3.1s0.7,0.8,0.1,1
		c-0.7,0.2-0.8,0.4-1.5,0.4c-0.8,0.1-0.7,0-1.6,0.2c-0.9,0.2-1.5,0.4-1.3,0.6s0.2,0.5,0.9,0.4c0.7-0.2,0.7-0.7,0.7-0.2
		s-0.2,0.7-0.7,0.8c-0.5,0.1-1.1-0.1-1.5,0c-0.4,0.1-0.7-0.2-0.8,0.4s0.5,0.4,0.4,1.2c-0.2,0.8-0.2,1.2-0.4,1.4
		c-0.2,0.2-0.2,0.9-0.3,0.8c-0.2-0.1-0.5-0.5-1-0.7c-0.4-0.2-0.4-0.5-0.9-0.1c-0.5,0.4-0.5,0.7-0.1,1.2s0.6,1,0.5,1.2
		c-0.1,0.2-0.2,0.2-0.7,0c-0.5-0.2-0.5,0.1-1-0.2s-0.4-0.5-0.4,0.4c0,0.8,0,1.2,0.3,1.5c0.3,0.3,0.5,0.3,0.4,0.6
		c-0.1,0.3-0.3,0.6-0.5,0.8c-0.2,0.2-0.2,0.5,0.4,0.7c0.6,0.2,0.5,0.4,0.2,0.8c-0.3,0.4,0.2,0.9,0,1.1c-0.2,0.3-0.7-0.2-0.8,0.4
		c-0.1,0.6,0.5,0.7-0.1,0.9c-0.5,0.2-1.1-0.3-1.3,0.3c-0.2,0.6-0.3,0.8-0.9,1.1c-0.6,0.3-0.5,0.2-1.1,0.6s-0.1,0.3-0.9,1.2
		c-0.9,0.9-1,0.9-1.8,1s-0.9,0.9-1.3,1.5c-0.4,0.6-0.2,0.2-0.4,1.1c-0.6,0.9-1.3,1.5-0.9,2.2s1.1,1.2,1.1,1.7c0,0.5-0.1,0.7,0.2,1.4
		c0.3,0.7,0.8,1.7,0.9,2.5s0.1,0.8,0.3,1.5c0.2,0.7,0.2,1.1-0.3,1.5s-1,1.2-1.2,0.4c-0.2-0.8-0.6-1.6-1.4-2.3c-0.8-0.7-1-1.4-1-2
		c0.1-0.7,0.7-1.8,0.2-2.2c-0.5-0.4-2.3-2.1-2.6-1.8c-0.3,0.3-0.7,0.5-1.4,0.4c-0.7-0.2-1.2-0.4-1.5-0.8c-0.3-0.4-0.7-0.4-1.5-0.4
		c-0.9,0.1-1-1-1.4-1c-0.4-0.1-0.7-0.2-0.8,0.4s-0.7,0.3-1.6,0.5c-0.9,0.2-1.5,0.2-2.1,0.4c-0.4,0.5-0.1,0.8,0.3,0.8
		c0.4-0.1,1,0.1,0.5,0.3c-0.5,0.2-0.9,0.2-1,0.5s-0.8,0.2-1.2-0.2c-0.5-0.3-0.9-0.5-1.2-0.7c-0.3-0.2-1.1-0.3-1.3,0.1
		c-0.2,0.4-0.7,0.1-1.2-0.2c-0.6-0.3-0.8-0.4-1.3-0.1c-0.5,0.4-0.4,0.8-1.1,0.8c-0.7-0.1-0.8,0.3-1.2,0.8c-0.4,0.5-1.8-0.1-1.8,0.4
		s0.4,0.8,0.2,1c-0.2,0.2-0.5,0.8-1.2,0.9s-0.9,0.4-0.9,1.3c0,0.9-0.1,1.6,0.1,1.9s-0.7,0.4-1.3,0.1c-0.7-0.3-1.2-1-1.7-1.5
		c-0.5-0.4-0.7-1.2-1.2-2c-0.6-0.7-1-1.1-1.2-1.9c-0.3-0.8-0.1-1.7-0.8-1.8c-0.8-0.1-1.7-0.3-2.2-0.2c-0.5,0.2-0.7,0.2-0.9,0.7
		c-0.2,0.5-0.6,0.9-1.5,0.2c-0.9-0.8-1-0.8-1.2-1.5s-0.2-1.5-0.7-1.5c-0.4,0-1.2,0.1-1.7-0.8c-0.4-0.9-0.3-1.3-1-1.1
		c-0.8,0.2-1.5,0.1-1.7,0.1c-0.3,0.1-0.5-0.4-0.8,0.2c-0.3,0.6,0.1,0.9-1,0.8s-3.2,0.1-4.1-0.2s-2.8-0.7-3.9-1.4
		c-1.1-0.7-2-0.9-2.8-0.9c-0.8-0.1-1.3-0.3-2,0c-0.7,0.3-1.1,0.9-1.4-0.2c-0.2-1.1-0.7-2.4-1.2-2.3s-1.1-0.3-1.7-0.9
		c-0.6-0.6-1-0.8-1.1-0.6s-0.2,0.9-0.7,0.4c-0.5-0.5-0.9-1.9-1.3-2.3c-0.4-0.4-1-0.8-1.1-1.3c-0.1-0.5,0.2-1-0.3-1.6
		c-0.5-0.5-1-1.2-1-1.6s0.1-0.7-0.3-0.9c-0.4-0.1-0.5-0.2-1.1-0.8c-0.6-0.6-0.5-1.2-0.9-2s0-1.2-0.3-1.6s-0.5-0.8,0-1.1
		c0.2-0.5,0.8-1,0.2-1.3c-0.5-0.3-0.5-0.7-0.5-1.4s0.2-2.3,0.3-3.4c0.1-1.1,0.4-3.4,0.4-5.4c-0.1-2-0.1-2.7-0.3-3.2s-0.5-1.6-0.8-2
		C128.3,203.8,128.6,202.9,129.7,203.6z"/>
	<path id="XMLID_217_" class="st3" d="M109.3,135.9c0.5-0.7,1.8,1,2.2,0c0.4-1,0.4-0.7,0-1.7c-0.4-1-0.3-2.4-0.6-2.5
		c-0.3,0,0.9-0.6,0.9-0.4s-0.1,0.9,0,1.3s0.5,0.9,1,0.4c0.4-0.5,1.3-0.7,1.7-1.3c0.4-0.6,1.9-0.8,2.5-1.6c0.6-0.8,1-1.2,1.3-1.4
		c0.4-0.2,0.8-0.1,0.6,0.2s-0.6,0.2-0.7,0.7c-0.1,0.4,0,0.8-0.4,0.9c-0.4,0.1-0.5,0.2-1.3,0.6c-0.8,0.3-0.9,0.2-1.3,0.7
		c-0.4,0.4-0.4,0.2-1,0.7c-0.6,0.6-0.4,0.8-0.2,1s0.6,0.4,1,0.1s0.9-1.2,1.1-0.9s0.7,0.6,1,0.3c0.4-0.3,0.7,0,0.9-0.8
		c0.2-0.8,0-1,0.8-1.4c0.8-0.4,1.1-0.7,1.4-0.2c0.3,0.6,0.6,0.2,1-0.1c0.4-0.4,0.6-0.4,0.7-0.9c0.2-0.5,0.9-1,0.7-1.2
		c-0.1-0.2-0.4-0.4-0.6-0.7c-0.2-0.3-0.1,0-0.1-0.5s0.5-0.6,0.7,0s0.6,1.6,0.9,2.3s0.4,1.4,0.9,2.1c0.5,0.6,1,1.1,1.3,0.8
		s0.9,0.3,1.2-0.3s0.1-1.6,0-1.7s0.5-0.5,0.8-0.5s-0.1,0.3,0,0.9c0.1,0.6-0.4,0.6,0.1,1.2s0.5,0.6,1.2,0.7c0.7,0.1,1.3,0,1.4-0.6
		s0.1-1,0-1.3c-0.1-0.4,0.7-0.7,1.2-0.4s0.7,0.7,1.2,1.3c0.5,0.6,0.6,0.6,1,1.2c0.5,0.6,0.7,0.6,1.5,0.4c0.7-0.2,1.1-0.3,1.8,0.4
		c0.7,0.7,2.8,1.9,3.6,1.8c0.8-0.1,0.7-0.6,1.3-0.5s1.5,0.8,1.9,1.4c0.4,0.6,0.3,1,0,1.1s0.1,0.1-0.8,0.6c-0.9,0.4-1.3,0.7-0.8,1.1
		s1.3-0.3,2.2,0.4s1.5,0.7,2.1,0.6s0.1,0.1,1.3,0.1c1.2-0.1,2,0.4,2.6-0.3c0.6-0.7,0.7-1.5,1.2-0.7s0.8,0.7,1.3,1.1
		c0.6,0.5,1.4,1.1,1.3,1.7s-0.6,1,0.6,1.6c1.1,0.6,1.9,0.8,1.9,0c0-0.8-0.1-2.9-0.6-3.4c-0.5-0.6,0.4-1.2,0.9-1.5s0.9-0.3,1.3-1.2
		c0.4-0.9,0.7-1.3,0-1.6c-0.7-0.2-1.3-0.2-1.5-0.1c-0.2,0.1-0.5,0.4-0.4,0.9s0.1,0.5-0.4,0.9s-0.9,0.7-1,0.2
		c-0.1-0.4-0.2-0.6-0.4-1.1s0.1-0.8,0.6-0.9c0.6-0.1,1-0.4,1.4-0.7s0.8-0.2,1.2,0c0.4,0.2,1,0.2,1.2,0.7c0.1,0.5,0.4,0.8,0.4,1.4
		s-0.2,0.7,0.2,1c0.4,0.3,1,0.7,1.7,0.5s1,0,1.4,0.4c0.4,0.4,0.7,0.1,1.3,0.5s0.9,0.9,1.3,0.9c0.5-0.1,2.1-0.4,2.7-0.3
		c0.6,0.1,1.9,0.6,2,0.2c0.1-0.4,0.7-1,0.9-0.8s0.4,0.4,1.2,0.5c0.7,0.1,1.5-0.4,0.9-0.8s-1-0.2-1.4-0.4s-0.5-0.6-0.4-1.2
		c0.1-0.6,0.6-1.5,0.7-1.2s0.1,0.5,0.7,0.8c0.6,0.3,0.8,0.6,1.2,0.7s1.1,0.3,1,0.7c-0.1,0.4-0.6,0.8-0.7,1.4c-0.1,0.6-0.4,1,0.4,1.3
		c0.7,0.4,1.2,0.7,1.5,0.3s0.7-0.8,0.4-1.5c-0.3-0.7-0.4-1-0.4-1.5s-0.3-0.1,0.5-0.3s0.4-0.7,1-1c0.6-0.4,0.6,0.2,0.9-0.3
		s0.2-0.4,0.5-1.4c0.2-1,0.6-1.2-0.4-1.4s-0.8-0.7-0.4-0.8s1.3,0.1,1.3-0.2c0.1-0.3,0.6-0.7,0-1c-0.6-0.3-0.6-0.2-1,0
		s-0.7-1-1.2-1.2c-0.5-0.2-1.7-0.4-2-0.9s-0.3-1.3-0.7-1.5c-0.4-0.2-0.1-0.6,0.1-1.2c0.2-0.7,0-1.2-0.2-1.5s0.4-0.5,0.4-1
		c0-0.5-0.7-0.9-0.1-1.2c0.6-0.3,0.9-0.4,0.9-1c0-0.6-0.2-2,0.8-2.4c1-0.4,1.7-0.4,1.7,0.2c-0.1,0.6,0.4,1.3,0.8,1.4s0.9,0.6,1,1
		c0.1,0.4,0.2,1,0,1.2s-0.5,0.6-0.2,0.9c0.3,0.2,0.7,1.3,1.2,2c0.5,0.7,1.3,0.9,0.9,1.3c-0.4,0.4-0.8,0.9-1.2,1.3s-0.5,0.6-0.1,1.1
		c0.4,0.5,0.4,0.7,1,0.9s1.7-0.5,1.5,0.4s-0.3,1.1,0,1.4c0.3,0.3,0.6,0.3,0.9,1s0.7,0.7,0.6,1.3c-0.1,0.6-0.4,2,0.6,1.3
		c1-0.7,1.2-1,1-1.3c-0.2-0.4-0.4-1.5-0.2-1.8s0.7-0.9,0.9-0.4c0.2,0.5,0.2,0.5,0.6,1.3c0.4,0.8,0.6,1.4,0.9,1.8s0.9,0.6,0,1.1
		c-0.9,0.6-1,0.7-0.6,1.5s0.8,1.4,1.1,1.8c0.3,0.4,0.5,0.6,1.2,0.6c0.7,0,1.3,0.1,1.1-0.4s-0.6-1.2-0.4-1.5s0.3,0.6,0.7,0
		s0.2-1.1,0.3-1.5c0.1-0.4,0.3-0.4,0.6-1.2c0.3-0.9,0-1.3,0.6-1.3c0.6-0.1,1.3-0.1,1-1.3c-0.3-1.2-0.3-2.5-0.8-2.8s0.3-1.5,0.9-1.2
		c0.5,0.3,1.4,0.3,1.5,0.6c0.1,0.3,0.2,0.6,0.7,0.6s0.7-0.8,1-0.5c0.3,0.3-0.1,0.5,0.3,1.1c0.4,0.6,0.1,1,0.6,1s1-0.1,1,0.2
		c0.1,0.4-0.4,0.7-0.6,1s-0.3,0.5,0.2,0.7s0.8,0.5,0.4,0.7c-0.4,0.2-0.7-0.1-1,0.2s-0.6,0.2-0.6,0.8s0.2,0.4,0.2,1
		c0,0.6-0.3,0.4,0.2,1s1.1,1,0.9,1.7c-0.2,0.7,0.1,1.1-0.2,1.7s-0.2,0.9-0.9,1.7c-0.7,0.8-0.8,1.3-1.3,0.8s-0.9-0.6-1.3-0.3
		s-0.4,0.9-0.7,1.2c-0.3,0.3-1.3-0.1-2-0.5c-0.7-0.4-0.7-0.5-1.5-0.1s-0.7,0.7-0.2,1.1s0.6,0.5,0.4,1s-0.2,0.6-0.6,1.1
		c-0.4,0.5,0,0.6-0.8,0.8c-0.8,0.2-1-0.1-1.8-0.7c-0.8-0.6-0.9-1.5-1.4-1.4s-0.8,0-1.1,0.4s-0.5,0.3,0.1,1.1c0.6,0.8,0.4,1,0.9,1.6
		c0.6,0.6,1.1,0.6,2,0.7s1.8-0.1,1.5,0.3c-0.2,0.4-0.4,0.5-1,1.2c-0.6,0.7-1.5,2.2-1.8,2.5c-0.3,0.2-1.1-0.1-1.8-0.3
		c-0.7-0.2-1.1,0-1.1,0.4s0.1,0.6,0.2,1s0.2,0.8-0.2,0.7s-0.4-0.6-1-0.8s-1.3-0.5-1.5-0.2c-0.2,0.3-0.1,0.7,0.3,1
		c0.4,0.3,0.8,0.7,1.3,1.1c0.6,0.4,0.7,0.8,0.4,1s-0.3,0.4-1.1,0.3c-0.8-0.1-2.1-0.1-2,0.4s0.7,1.1,0.4,1.3s-0.5,0.1-0.9,0.6
		c-0.4,0.4-1.2,1.3-1.6,2.2c-0.4,0.9-1.2-0.3-1.6,0c-0.4,0.3-0.7,0.7-0.3,1.2c0.4,0.6,0.9,0.6,0.8,1.2s-0.8,0.6-0.9,1.3
		c-0.1,0.7,0.2,3.1,0.5,4.6c0.3,1.5,1,1.7,1.5,1.7s1-0.2,1,0.5s-0.4,0.9-0.2,1.5c0.2,0.7,0.7,1.2,0.8,2c0.1,0.8-0.2,1.2,0,1.7
		s0.6,1,0.9,0.6c0.3-0.4,0.7-0.5,1.1-0.9c0.4-0.4,0.4-0.6,0.9-0.2s0.6,0.6,1.3,0.9c0.7,0.3,0.7,0.9,1.7,1.1s0.9,0.1,1.6,0.5
		c0.7,0.4,0.9,1.2,2.1,1.3c1.2,0.2,1.8,0.9,2.4,1.4c0.6,0.6,1.4,0.6,2.1,0.7c0.7,0.1,1.4,0,2,0s1.1-0.1,1.2,0.3
		c0.1,0.4-0.1,0.7-0.2,1.2s0.2,0.5,0.3,1.5c0.1,1-0.7,1.2-0.6,1.7c0.2,0.4,0.9,1.2,0.9,1.8s-0.1,0.9-0.4,1.2
		c-0.3,0.3,0.4,0.5,0.8,0.5s1,0.1,1.1,0.5c0.1,0.4,0,0.8,0.4,1.2c0.4,0.4,0.9,0.8,1.4,1.1s0.9,0.4,1.2,0c0.3-0.4,0.4-0.7,0.7-0.6
		s0.1,0.7,0.5,0.8c0.4,0.1,0.7-0.3,0.6-0.9c-0.1-0.6,0.4-1,0.7-1.3c0.3-0.4,0.6-1.1,0.2-1.4c-0.3-0.3-0.9-0.4-0.7-1.7
		c0.1-1.3,0.4-1.5,0.1-2.5c-0.4-0.9-1.5-1.7-1.2-1.9s2-0.7,2.3-1.3c0.2-0.6,1.6-0.4,1.7-1.3s0.3-1.2,0.7-1.7s0.7-1.7,0.4-1.7
		s-1,0.4-0.9-0.6c0.1-1-0.3-1.1-0.3-2.1c0-1,0.1-1.6-0.5-2.3c-0.6-0.7-0.7-0.7-1.4-1.6c-0.7-0.9-1-1.7-0.5-1.5
		c0.5,0.1,2.1-1.2,2.4-1.3c0.2-0.1-0.2-0.1-0.2-1c-0.1-0.9-0.2-1.8-0.6-1.9s0.6-0.2,0.6-0.6s-0.6-0.7-1.1-1s-0.4-0.9-0.1-1.5
		c0.2-0.6,0.6-1.7,0.1-1.7s0-1,0.2-1.6s0.6-0.9,0.8-0.7s0.9,0.3,1.3,0.2s0.5,0.1,1.2,0.6c0.7,0.5,1.6-0.1,2.4-0.4
		c0.8-0.2,1.5,0.1,1.7,0.4s0.3,0.7,0.4,1.1c0.1,0.4,0.5,0.1,0.8,0.6c0.3,0.6,1.1,1.7,1.5,2.1c0.4,0.4,0.6,0.1,1,0.2
		c0.4,0.1,0.4,0.5,0.7,0.7s0.5,0.4,1,0.2s0.5-0.5,0.4,0.3s0.2,1.1,0,1.3s-0.7,0.1-0.9,0.4s-0.7,0.9-0.1,1s0.8,0.4,1.1,0.8
		c0.3,0.4,0.5,1.1,0.3,1.4c-0.2,0.3-0.6,0.7-1,0.9c-0.4,0.2-0.5,0.7-0.1,1s0.6,0.6,1.1,0.4c0.5-0.2,0.9-0.9,1.2-0.6s0.4,0.5,0.6,1.2
		c0.2,0.7,0.4,1.2,1,1.2c0.6,0,0.5-0.6,0.9-0.8c0.4-0.2,1.5-0.1,1.5-0.6s-0.7-0.7,0-0.7s1,0.1,1.3-0.5s0.6-1,0.4-1.4s0.7,0,0.7-0.6
		s0.5-0.9,0-1.5c-0.5-0.6,0.1-0.6,0.2-0.8s0.3-0.2,0.6,0.3s1.1,0.7,0.7,1.1s0,0.6,0.1,0.8c0.1,0.2,0.6,0.3,0.5,0.9
		c-0.1,0.6-0.2,0.9,0.3,0.9c0.6,0,0.3,0,0,0.6c-0.3,0.6-0.3,0.9,0.3,0.9c0.7,0.1,1.5-0.2,1,0.4c-0.5,0.7-0.6,0.9-0.4,1.3
		s0.4,0.2,0.9,0.3c0.5,0.1,0.9-0.1,0.9,0.3s-0.3,0.7-0.6,1c-0.3,0.2,0.1,0.9,0.6,1.1c0.6,0.2,0.4,0.2,0,0.6
		c-0.4,0.4-0.7,0.8-0.4,1.2c0.2,0.4,0,0.6,0.8,0.9s0.2-0.8,1.4,0.7c1.2,1.5,1.3,2.1,2.7,2.2c0.4,0.5-0.2,0.9,0.8,0.8
		c1-0.1,1.2,0.2,1.1,0.4s-1,0.5-1.3,0.9s-0.2,0.6-0.7,0.8c-0.6,0.2-1.2,0.2-1.7,0.7s-0.8,0.9-0.7,1.3c0.1,0.4,0.5,0.6,0.8,0.4
		c0.3-0.2,0.8-0.4,1-0.7s-0.1-0.4,0.6-0.6c0.7-0.2,1.6-0.6,1.9-0.9s0.5-0.7,0.7-0.5c0.2,0.2,0.5,0.9,0.4,1.2s0,0.8,0.5,0.6
		s0.6-0.5,0.9-0.2s1,0.4,1,0.9c-0.1,0.4,0,0.7,0,1.5c0,0.7,0.6,0.6,0,1.3c-0.6,0.7-0.6,1.6-1.2,1.8s-1.2,0.4-2.3,0.6
		c-1,0.2-0.6-0.2-1.3,0.6c-0.7,0.8-1.9,2.3-2.5,2.3c-0.6,0-1.3,0.4-2.1,0s-1-0.5-2-0.4c-1,0.1-2.3,0.2-3.3,0.2c-1,0-1,0.1-2,0.3
		c-0.9,0.2-1.6,0.3-1.8,0.8c-0.2,0.6-0.3,1.2-0.7,1.2s-0.4-0.7-1.2,0c-0.8,0.7-1.2,1.6-1.9,2.1c-0.7,0.5-1.8,2.4-2.1,2.6
		c-0.3,0.2-0.8,0.9-0.9,1.3c-0.1,0.4,0.1,0.9,0.4,0.8s1-0.2,1.1-0.7s0.7-1.4,1.3-2c0.6-0.6,1.4-1,2.3-1.5c0.9-0.6,0.5-1,1.6-1.2
		c1.1-0.2,1-0.2,1.7-0.4s1.7-0.5,1.9,0c0.2,0.5,0.6,1.3,0.2,1.5s-1.2,0.5-2,0.6s-0.6-0.1-1,0.4c-0.4,0.4-0.3,0.4,0.1,0.7
		c0.4,0.2,0.4-0.1,0.7,0.4c0.4,0.6,0.6,0.2,1.1,0.2s0.6-0.2,0.8,0.1c0.2,0.4,0.2,0.4-0.1,1.1c-0.3,0.7,0.1,1.3,0.5,1.6
		s1,0.5,1.3,0.7c0.2,0.1,0.2,0.2,0.7,0.5c0.5,0.4,0.7,0.8,1.1,0.6c0.4-0.2,0.6-0.1,1.1,0c0.5,0.1,0.7,0.2,0.8,0
		c0.1-0.3,0.1-0.2,0.5,0.2c0.3,0.3,0.6,0.5,0,0.7s-1,0-1.3,0.3s-0.3,0.1-0.7,0.5c-0.5,0.4-0.5,0.6-1,0.8c-0.5,0.1-0.7-0.5-1.1,0
		s-1,1.2-1.3,1.5c-0.4,0.3-0.2,0-0.7,0.6c-0.5,0.5-0.4-0.1-0.5-0.8c-0.1-0.6-0.4-0.5-0.5-0.6s0.2-0.5,0.4-0.7
		c0.2-0.2,0.5-0.6,0.9-0.8c0.4-0.2,0.5-0.3,0.9-0.2c0.4,0,1.2,0.2,1.3-0.1c0.1-0.3,0.2-0.7-0.2-1c-0.3-0.5-0.3-1.3-1-0.9
		c-0.7,0.4-0.5,0.3-1.2,0.6c-0.6,0.3-0.8,0.6-1.3,0.6c-0.5,0-0.9-0.1-1.1,0.3s-0.5,0.6-0.5,0.6s-0.3-0.9-0.7-0.9
		c-0.4,0-0.6-0.5-0.8-0.9c-0.2-0.4-0.2-1.2-0.1-1.8c0.1-0.6,0.2-1,0.1-1.3c-0.1-0.4-0.1-0.4-0.1-0.4s-0.4-0.2-0.5-0.2
		c-0.2,0-0.2-0.2-0.5-0.1c-0.3,0-0.4,0-0.8-0.2c-0.3-0.2-0.4-0.3-0.6-0.2c-0.2,0.1-0.6,0.2-0.7,0.4c-0.2,0.2-0.5,0.6-0.5,0.6
		l-0.3,0.7l-0.3,0.7c0,0,0,0.6-0.2,1c-0.2,0.3-0.3,0.4-0.3,0.7c-0.1,0.3,0.1,0.6-0.2,0.7c-0.3,0.1-0.5,0.1-0.8,0.3s-0.6,0.8-0.9,0.8
		s-0.7-0.1-1.1-0.1s-0.9,0-1.9-0.1c-1-0.1-1.7-0.1-2.1,0c-0.4,0.1-0.5,0.3-0.8,0.5c-0.3,0.2-0.6,0.4-1,0.7c-0.3,0.3-0.5,0.5-0.7,0.5
		c-0.2,0-0.2-0.4-0.6-0.3s-0.4-0.2-0.6,0.1s-0.3,0.4-0.6,0.7c-0.3,0.3-0.5,0.6-0.7,0.7c-0.2,0.1-0.2-0.1-0.8,0
		c-0.5,0.1-1.2-0.1-1.5,0.1s-1,0.6-1.3,0.7c-0.3,0.1-0.1,0.4,0.1,0.5c0.2,0.1,0.4,0.4,0.6,0.2c0.2-0.2,0.3-0.3,0.3-0.1
		c-0.1,0.2,0.2,0.3-0.1,0.6s-0.3,0.7-0.4,0.8c-0.2,0.1-0.6,0-0.8,0c-0.2,0-0.9-0.3-1.3,0c-0.4,0.3-0.7-0.1-1.1,0.2
		c-0.4,0.3-0.5,0.4-0.8,0.4c-0.3,0.1-0.6-0.1-0.5-0.3c0.1-0.2,0.2-0.3,0.1-0.7c-0.1-0.4,0-0.6,0.1-0.8c0.1-0.1,0.4,0.3,0.4-0.4
		c0-0.8-0.2-1.6,0-1.9s0.4-0.2,0.5-0.6c0.2-0.4,0.1-0.7,0.2-1.2s0.3,0,0.4,0.2c0.2,0.3,0.1,0.6,0.5,0.7c0.4,0.1,0.3,0.1,0.8,0
		c0.4-0.1,0.6-0.4,0.6-0.9c0-0.4,0.1-1.4-0.4-1.7c-0.5-0.3-0.8-1.5-1.1-1.6s-0.6,0.1-1.7,0c-1.1-0.1-2.5-0.4-2.8-0.7s-1-1-1.5-1.5
		s-0.2-1.5-0.7-1.9c-0.5-0.4-0.8-0.7-1.3-0.5c-0.5,0.1-1-1.4-1.2-1.7s-0.6-0.4-0.8-0.4c-0.1-0.1-0.4-0.1-0.5,0.3
		c-0.1,0.4,0,0.8,0,1.1s-0.3,0.4-0.5,0.2c-0.2-0.3-0.3-0.7-0.4-1c-0.2-0.4-0.2-0.6-0.8-0.5c-0.6,0-1,0.1-1.3,0.4
		c-0.3,0.3-0.3,0.3-0.7,0.7c-0.4,0.4-0.4,0.4-0.7,0.8s0,0.3-0.3,0.4c-0.3,0.2-0.2-0.5-0.5-0.4s-1-0.2-1.3-0.1
		c-0.3,0.1-0.5,0.3-1.2,0c-0.7-0.4-1.1-1.1-1.4-1.1c-0.3,0-0.9-0.1-1.6-0.2c-0.7-0.1-1-0.2-1.3-0.4s-0.9-0.8-1.1-1.1
		s-0.4-0.4-0.5-0.2s-0.2,0.2-0.1,0.5c0.1,0.3,0.2,0.5-0.1,0.5c-0.3,0-14.8,0-15.7,0c-0.9,0-20.2,0-21.2,0c-0.9,0-9.3,0.1-9.5,0
		s-0.5-0.9-0.8-1.4s-0.5-1-1.3-1.4c-0.8-0.3-0.8-0.5-1.2-0.5c-0.4,0-0.7,0-0.7,0.3c0,0.3-0.2,0.4,0.2,0.8s0.2,0.5,0.6,0.9
		c0.4,0.4,0.7,0.7,1,1c0.3,0.3,0.6,0.6,0.6,0.9c0.1,0.3,0.1,0.5-0.2,0.5c-0.3,0-0.5,0.2-1,0c-0.5-0.2-0.9-0.4-1.2-0.8
		c-0.3-0.3-1-1.6-1.2-1.9c-0.2-0.3-0.8-0.8-1.2-0.8s-0.5-0.3-0.5-0.7c0.1-0.4,0.3-0.7,0.3-1c-0.1-0.3,0-0.7-0.5-0.8
		c-0.4-0.1-0.9-0.3-0.7-0.4s0.4-0.1,0.5-0.5c0.1-0.4,0.1-0.8,0-1.3c-0.1-0.4-0.3-0.4-0.7-0.3c-0.4,0.1-0.7,0.4-0.9,0.2
		s0.3-1,0.1-1.4c-0.2-0.4-0.4-0.9-0.9-1s-0.8-0.4-0.8-0.5c0-0.1,0.5-1,0.3-1.2c-0.2-0.2-0.4-0.3-0.7-0.3c-0.3,0-0.6-0.1-0.6-0.5
		c0-0.4,0.2-1.2-0.2-1.4c-0.3-0.2-0.7-0.2-0.6-1c0.5-0.5,0.5-0.5,0.6-1s-0.3-0.6-0.1-0.9s0.6-0.3,0.1-0.4c-0.5-0.1-0.8-0.1-0.6-0.4
		c0.2-0.3,1.2-2.1,0.5-2.4s-2.1-0.8-2.4-0.8s-1.4-1.4-1.8-2.3c-0.3-0.9-1.9-3.9-2.7-4.8c-0.9-0.9-1.7-1.5-1.6-1.7
		c0.1-0.2-0.3-1.2-0.3-1.6c0-0.4-0.3-0.5-0.8-0.3c-0.5,0.2-0.9-0.1-1.5,0.5c-0.7,0.6-1.1,0.8-1.1,0.8s-0.8-0.2-1-0.7
		c-0.3-0.5-1.5-1.6-1.8-1.7c-0.3-0.2-0.8-0.3-1.3-0.2c-0.5,0.1-1.3-0.2-1.7-0.2c-0.4-0.1-9.9-3.6-9.9-3.6S102.2,146,109.3,135.9z"/>
	<path id="XMLID_92_" class="st3" d="M143.2,239.1c0,0,0-0.1,0-0.2c0.1-0.4,0.4-1.1,1.3-0.9c1.2,0.2,2.4-0.4,2.9,0.3
		c0.5,0.7,2.2,1.1,3,1.5c0.8,0.4,3.6,0.7,4.3,0.7c0.7,0,2.7,0.2,2.9,0c0.2-0.2,0.1-1.6,0.4-1.2c0.3,0.3,1,0.3,1.3,0.3
		c0.3-0.1,0.6-0.6,0.7-0.3c0.2,0.3-0.1,0.8,0.7,1.3s1,0.6,1.3,0.8c0.3,0.1,0.3-0.1,0.4,0.5s0.6,1.1,1,1.6s1.1,1,1.3,1.1
		c0.2,0.1,0.4,0.2,0.7,0c0.3-0.2,0.8,0.1,1-0.3s-0.3-0.6,0-0.8c0.3-0.2,1.4,0,1.7-0.1c0.3-0.1,0.5-0.2,0.7,0.3
		c0.2,0.5,0.3,1.2,0.5,1.5c0.3,0.3,0.5,1.1,0.8,1.2c0.3,0.1,0.7,0.5,0.7,0.7c0.1,0.3,0.2,0.6,0.6,1.2s0.9,1.3,1.3,1.5
		c0.4,0.2,1,0.4,1.4,0.5c0.4,0.1,0.5-0.3,0.9,0c0.4,0.3,0.5,0.3,0,0.7s-1.1,0.2-0.9,0.7s0.4,0.7,0.7,1.4c0.3,0.6,0.2,0.9-0.1,0.7
		c-0.3-0.2-0.5-0.5-0.9-0.5c-0.4,0-0.8,0.1-0.9,0.3s-1-0.2-0.8,1.6s0.1,2.2,0.6,2.5c0.5,0.3,0.6,0.3,1.2,0.2
		c0.6-0.1,1.4,0.4,1.4,0.8c0,0.4,0.1,1.1,0.4,1.9c0.3,0.8,0.6,1.2,0.9,1.5c0.3,0.3,1.5,1.2,1.8,1.4c0.3,0.3,0.5,0.6,1.2,0.7
		c0.7,0.1,1.2,0.4,1.7,0c0.5-0.4,0.8-0.4,1.7-0.4s2,0.4,2.5-0.3s0.6-0.7,1.2-1.9s0.5-2.4,0.9-2.8s1.5,0.1,2.3-0.3
		c0.8-0.3,0.6-0.8,1.2-0.3s1,0.2,1,0.7c0.1,0.5-0.1,0.5-0.6,1.1c-0.5,0.6-1,0.5-1,1.4s-0.5,1-0.6,1.4c-0.2,0.4-0.6,0.9-0.5,1.1
		c0.2,0.2,0.8,0.2,0.9-0.2s0.2,0,0.1,0.6c-0.2,0.6-0.9,0.8-0.7,1.3c0.2,0.5-0.2,0.6-0.1,1.2c0.1,0.6-0.1,0.7,0.2,1s0.3,0.6,0.7,0.5
		c0.4-0.2,0.5,0.2,1.4,0s1.6,0.5,2.1,0.1s1.1-0.6,1.6-0.6c0.5-0.1,0.9,0.6,1.3,0.8c0.4,0.2,1,0.2,1.2,0.6s-0.1,0.4,0,0.7
		s0.1,0.7,0.1,1.2c-0.1,0.4-0.1,0.8-0.2,1.4s-0.5,0.7-0.4,1.5c0.1,0.8,0,1.2,0.1,1.7c0.1,0.5-0.1,1.1,0.6,1.5c0.6,0.4,0.6,0.4,1,0.7
		c0.4,0.3,0.6,0.3,0.9,0.7c0.3,0.4,0.2,0.6,0.7,0.8c0.5,0.3,0.7,0.5,0.9,0.7c0.2,0.2,0,0.3-0.4,0.6s-0.4,0.5-1.1,0.2
		c-0.6-0.2-0.8-1-0.9-0.8c-0.1,0.2,0,0.5-0.6,0.4s-0.6-0.3-0.9-0.7c-0.3-0.4-0.1-0.5-0.8-0.8c-0.7-0.4,0.5,0.7-1-0.5
		s-2.1-1.5-1.9-1.7c0.2-0.2,1.1-0.1,0.9-0.5c-0.2-0.3-0.1-0.5-0.8-1s-0.9-1.2-1.6-1.5c-0.7-0.3-0.7-0.7-1.1-0.8
		c-0.4-0.1,0-1.7-0.3-1.7c-0.3,0-0.5,0-1.1,0.1c-0.6,0.1-1,0.2-1.7,0.2s-1.4-0.1-1.9-0.2c-0.5,0-2.6-1.4-3.2-1.9
		c-0.6-0.5-2.8-2.1-3.7-2.5c-0.8-0.3-1.3-0.2-1.6,0.4c-0.3,0.6-0.2,0.6-1.3,0.5c-1.1-0.1-1.9-0.3-2.4-0.6s-0.9-0.6-1.8-0.7
		c-0.9-0.1-1.6-0.1-2.2-0.6c-0.6-0.4-0.6-0.7-1.3-1.2c-0.6-0.4-0.3-0.1-1.3-0.6s-1.8-0.3-2.2-0.8c-0.5-0.5-1.3-1.2-1.7-1.4
		c-0.5-0.3-0.5-0.5-1.1-0.9s-0.9-0.7-0.9-1c0-0.2,0.4-0.5,0.4-0.9c0-0.4-1.5-1.5-1.7-1.7c-0.2-0.2,1.4-1.3,0.9-1.5
		c-0.5-0.2-0.1-0.2-1.1-0.7c-0.9-0.5-1-1.1-1.7-1.3c-0.6-0.3-0.2-1.8-0.5-1.9s-0.8-0.4-1-0.4s-1.5-0.4-1.6-1.2
		c-0.1-0.7,0.2-1.4-0.4-1.5c-0.6-0.1-0.7,0.3-1.1-0.2s-0.1-1.1-0.5-1.4s-0.3-0.7-1.1-0.8c-0.8-0.1-3.1-6.7-3.7-6.9s-1.2-0.7-1.5-0.9
		c-0.4-0.2-1.1-0.4-1.3-0.2s-0.3,1-0.1,1.5c0.1,0.5-0.4,1.6-0.1,2c0.3,0.4,1,0.9,1.6,1.6s2.4,3.9,2.8,4.2c0.4,0.3,0.8,0,1,0.5
		s0,1.3,0.4,1.8c0.3,0.5,0.9,1.5,1.2,1.8c0.3,0.3,0.9,1.2,1.3,1.6s0.8,0.8,0.8,1.2c0,0.4-0.2,0.6-0.5,0.6c-0.3,0,0-0.4-0.2-0.6
		c-0.3-0.3,0-0.6-0.6-0.9c-0.6-0.3-1.9-0.6-2.2-0.9c-0.3-0.4,0-1.2-0.3-1.5c-0.3-0.3-1-1.2-1.3-2.1c-0.3-0.9-0.7-1.2-1.2-1.1
		c-0.5,0.1-0.5-0.7-1-0.7c-0.5,0-1.1-0.4-1.2-0.6c-0.1-0.1,0.6,0,0.8,0c0.2-0.1,0.3-0.2,0.1-0.6c-0.2-0.5,0-1.2-0.2-1.6
		s-0.6-1.3-0.8-1.4c-0.2,0-0.4,0-0.9-0.1s-0.4-0.7-0.6-1c-0.1-0.3-1.2-2.8-1.4-3S143.2,239.1,143.2,239.1z"/>
	<path id="XMLID_91_" class="st2" d="M193.2,285.5c0,0,2.1-0.8,2.6-1.8c0.5-1,1.1-2.1,0.6-3.9c-0.5-1.8-0.2-3.7-0.8-4.4
		c-0.6-0.6-0.1-0.9,1-1.1c1.1-0.2,0.3-1.2,0.8-1.5s2.6-0.3,2.1-1.3c-0.5-1-1.8-1.5,0.1-1.5s3.8-1.3,4.6-1.6s-0.6,0.5,0,1
		s0.3,1,0.3,1.8c-0.1,0.8,0.1,1.3,1.2,1.6c1.1,0.3,1.1-1.8,0.8-2.3c-0.3-0.5,2.3,0.3,1.8-1.1c-0.5-1.5-0.3-0.6,0.8-0.3
		c1.1,0.3,1,0.8,1.9,1.3c1,0.5,2.4,0.6,2.9,0.2c0.5-0.5,0.3,0.3,1.1,0.6s4.1-0.5,4.5-0.8c0.5-0.3,1,1,1,1s0.6,0.8,1.5,0.8
		s1.6,1.1,1.6,1.1s-1.1,1.2,0,1c1.1-0.2,2.1-1,2.6,0c0.5,1,0.6,2.2,1,2.6s0.8,1.1,2.1,1.4s2.6-0.2,3.6-0.2c1,0,2.8,0.5,4.1,1.8
		s2.3,2.3,2.9,3.2s1.1,1.3,1.3,2.3c0.2,1-1.3,1.6-1.5,2.3c-0.2,0.6-0.5,1.3,0.2,2.1c0.6,0.8-0.3,1.9,1.3,1.9c1.6,0,2.3,0.8,2.6,0
		c0.3-0.8,0.5-2.6,1.6-2.3c1.1,0.3,1.6-0.5,2.6,0.6c1,1.1,0.6,3,1.5,2s0.2-0.4,1.1,0.3s1.8-1.1,2.6,0c0.8,1.1,0.8,2.1,2.3,1.8
		c1.5-0.3,2.3-1.5,4.5,0.1c2.3,1.6,2.6,2.7,4.2,2.5s1.8,1.3,2.1,2.3c0.3,1,1,2.4,0,3.4c-1,1-2.1,3.2-3.4,4.5s-1.6,1.5-2.4,2.8
		c-0.8,1.3-1.5,1.3-1.3,2.6s1,1.5,0.2,3.1c-0.8,1.6-1,3.6-0.6,4.5c0.3,1-0.6,0.5-1.1,1.8c-0.5,1.3-1.8,0.5-1.6,2.4
		c0.2,1.9-1.1,2.3-2.3,2.6c-1.1,0.3-7.3,1.8-8,3.1s-1.6,2.1-2.1,2.9c-0.5,0.8-0.5,1.3,0,1.9c0.5,0.6,1,1-0.2,2.1
		c-1.1,1.1-1.8,2.6-2.8,3.2c-1,0.6-1-0.3-1.8,1.3c-0.8,1.6-2.1,5.8-3.2,6.5c-1.1,0.7-0.6,1.6-2.9,1.6s-3.6-2.2-4.7-1.6
		c-1.1,0.5-1.6,1-0.6,1.6c1,0.6,0.3-1.5,1,0.6c0.6,2.1,1.5,2.6,1.6,3.2c0.1,0.6-1.1,0.8-1.5,1.6c-0.3,0.8,0.5,1.1-1.8,2.1
		c-2.3,1-5,0-5.8,0.8c-0.8,0.8-0.3,1.1-0.2,2.3c0.2,1.1,0,2.3-1.1,2.8c-1.1,0.5-3.1-0.3-3.2,0c-0.2,0.3-0.5,1.6,0,2.3
		c0.5,0.6,1.1,0.6,0.8,1.5c-0.3,0.8-1.9,2.3-1.6,4.2c0.3,1.9-2.3,0.5-2.9,2.1c-0.6,1.6-0.8,3.2,0.6,3.9c1.5,0.6,2.1,0.6,1.8,1.5
		c-0.3,0.8-2.8,2.9-3.1,3.9c-0.3,1-0.6,0.8-1.6,2.1c-1,1.3-1.8,1.6-1.6,2.4c0.2,0.8,0.3,2.1,1.1,3.2c0.8,1.1,0,2.6,1.3,3.9
		c1.3,1.3,1.3,1.5,2.4,2.3c1.1,0.8,1.9,0.5,2.4,1.1c0.5,0.6-1.9,0.6-2.9,0.6s-2.6-0.3-3,0c-0.5,0.3-3.5-0.2-3.6-0.8
		c-0.1-0.6,0.5-0.9,1.3-0.6c0.8,0.3,1.6,0.1,1.6-0.2s-0.7-1.5-1-1.7c-0.3-0.2,1.4-0.2,0.6-1.2s-1.6-1.3-1.2-1.7
		c0.5-0.5,0.8-1.2-0.3-0.9c-1.2,0.2-1.5,0.1-2.6-0.1c-1-0.2-1.3-2.8-1.7-2.3s-1.3,0.1-1.5-0.6c-0.2-0.7,1.2-2.3,0.5-2.4
		s-1.5-0.9-0.9-1.6c0.6-0.7,2-1.7,1.3-1.6c-0.7,0.1-2.1,0.5-1.9,0s0.8-0.9,1-1.5c0.2-0.6,0.8-2.4,0.1-2.8c-0.7-0.3,0.8-2.4,1.2-3.4
		c0.3-0.9-0.5-1.6,0.1-2.2c0.6-0.6,0.8-1.9,0.7-2.9c-0.1-1,0.1-1,0.3-2.2s0.5-2.7-0.3-2.9c-0.8-0.2-1.7,0.7-1.7,0.1
		c0-0.6,0.8-4.3,0.7-5.9c-0.1-1.6-0.5-3.7-0.2-4.1c0.2-0.3,1-0.2,1.7-2.7c0.7-2.4,1.4-3.6,1.5-5.5c0.1-1.9-0.6-4.5-0.2-5.1
		c0.3-0.6,0.6-1.4,0.1-2.2c-0.5-0.8,1.3-1.6,1.2-3.1c-0.1-1.5,0.5-4.3,0.9-5.9s0.5-3.1,0.2-4.5c-0.2-1.4,0.1-2.1-0.3-4.2
		c-0.5-2.1-0.2-3.1-0.8-3.9c-0.6-0.8-0.6,0-1.6-0.8c-1-0.8-1.2,0-2.9-1.4c-1.7-1.4-3.5-1.5-3.8-2.3c-0.3-0.8-0.8-3-1.9-4.2
		s-0.2-1-1.4-2.7c-1.2-1.6-1-1.6-2-3.8c-0.9-2.2-2.1-2.9-2.8-3.6c-0.7-0.7-0.3-0.9-0.7-1.7c-0.3-0.8-0.7-2,0-2.4
		c0.7-0.5,1.6,0,1.6-1.3s-0.2-1.4-0.7-2.4c-0.5-1,0.2-1.3,0.3-2.3c0.1-1,0-0.5,0.9-1.4C192.9,286.1,193.2,285.5,193.2,285.5z"/>
	<path id="XMLID_61_" class="st2" d="M425.6,225.7c-1-0.5-0.7-0.8-0.3-0.6"/>
	<path id="XMLID_51_" class="st2" d="M425.8,240c0.1,0.2-0.3,0.7-0.1,1c0.2,0.3,0.6,0.7,0.3,1c-0.3,0.3-0.4,1.6-0.8,1.9
		s-1.9,1.3-2.2,1.6s-0.8,0.5-1,0.9c-0.2,0.3-0.2,1.1,0.1,1.5c0.2,0.3,0.4,0.7,0.1,0.9c-0.4,0.2-0.5,0.3-1.1,0.4s-1.1,0.3-1.5,0.5
		c-0.4,0.2-0.5,0.7-0.2,0.9c0.3,0.2,0.7,1.3,1,1.5c0.3,0.2-0.2,0.5-0.7,0.5c-0.5,0.1-0.7,0.1-1.1,0.4s-0.9,0.4-0.9,0.8
		c0.1,0.3-0.4,0.5-1,0.3s-1-0.4-1.1,0.1c-0.1,0.5-0.3,1-0.4,1.4c-0.1,0.4-0.5,0.4-0.5,0.8c0,0.4-0.2,1.1-0.8,0.2s-1.3-1.7-1.4-2.1
		c-0.2-0.3-0.8-1-0.8-1.7c0.1-0.7,0-1.1-0.5-1.5c-0.5-0.3-0.2-0.6,0.4-0.5c0.6,0.1,1.3,0.7,1.8,0.5c0.5-0.2,0.4-0.5,0.8-0.5
		c0.4-0.1,0.7,0.3,1.2,0.1c0.5-0.3,1.1-0.7,0.8-1s-0.2-0.1-0.6-0.1s0-0.7,0.2-0.9c0.2-0.2,0.4-0.5,0.1-0.8c-0.3-0.3,0.5-0.7,0.5-1.1
		s-0.2-1.1,0.3-1.5c0.4-0.4,0.2-0.6,0.4-1.1s0.1-1.1,0.3-1.5c0.2-0.4,0.4-0.1,0.7-0.7c0.3-0.7,0.4-0.6,0.7-1.2
		c0.3-0.6,0.5-1,0.1-0.9s-0.7,0.5-0.9,0.8c-0.2,0.3-0.3,0.5-0.4,0.7s-0.5,0.3-0.3-0.3c0.2-0.6,0.2-0.1,0.4-0.9c0.2-0.8,0.4-1.1,0-1
		c-0.4,0.1-0.5-0.2-0.5,0.4c0.1,0.6,0.3,0.8-0.2,0.7c-0.5-0.2-0.9-1.4-1.6-1.1c-0.7,0.3-0.5,0.9-0.8,1.1c-0.3,0.3-0.3,0.4-0.7,0.4
		c-0.4-0.1-0.4-0.2-0.8,0.2s-0.6,0-1.1-0.2c-0.5-0.2-1.3-0.8-1.9-1.2s-1.1-0.7-1.4-0.3s-0.5,0.7-0.4,1s-0.9,0.3-1.3,0.2
		c-0.4-0.1-0.8-0.7-1.3-0.7c-0.5-0.1-0.9,0.2-1.3,0c-0.4-0.2-1.3-0.9-1.3-1.4s0.2-1.7,0-1.7c-0.2-0.1-0.1,0.3-0.8,0
		c-0.7-0.3-1.1-0.3-0.7-0.8c0.4-0.4,0.5,0.1,0.7-1.1c0.1-1.1-0.1-1.2-0.4-1.2s-0.8,0.2-0.7-0.4c0.2-0.6,0.1-1.3,0.6-1.3
		c0.5,0.1,1.1-0.1,1.6,0.2c0.5,0.3,1.5,0.3,1.7,0.1c0.2-0.2,0.7-0.3,0.7-0.6c0.1-0.3,0.4-0.2,0.6-0.2s0.8-0.6,0.4-0.7
		c-0.4-0.1-1-0.2-0.7-0.4c0.3-0.3,0.5-0.8,1-0.6c0.5,0.2,0.4,0.3,1,0.5c0.6,0.2,0.9,0.4,1.3,0.1c0.4-0.3,0.9-0.6,0.9-0.6
		s2.8-2,5.1-1s4.6,2.5,6.4,2.5c1.8,0,3.2-0.5,3.9-1l0.4-0.4c0,0,0.7,9.3,0.6,11.7c-0.6,0.5-1.6,0.2-1.6,0.2"/>
	<path id="XMLID_58_" class="st2" d="M423.1,211.2c-0.1,0.3-0.1,1.2,0.2,1.5c0.3,0.3,0.4,0.3,0.2,0.8c-0.3,0.4-1.3,0.2-1.6,0.4
		c-0.3,0.2-0.8,1.9-1.3,2c-0.4,0.2-1.9,0.8-2.7,0.9c-0.8,0.1-0.8,0.1-1.5,0.5c-0.7,0.4-1.2,0.4-1.2,0.8s0,1.6,0.6,2
		c0.6,0.3,0.8,0.7,0.8,0.7s-0.9,0.2-1.2,0.4c-0.3,0.2-0.6,0.7-1,0.9c-0.4,0.3-0.9,0.2-0.7-0.4c0.2-0.6,0.3-0.9-0.4-1.4
		c-0.7-0.4-0.5-0.4-0.1-0.5c0.4-0.1,0.8-0.2,0.9-0.5c0.1-0.3,0.3-1-0.1-1.1c-0.4-0.1-0.7-0.4-1.1-0.1s0.2,0.5-0.4,0.3
		c-0.6-0.3-0.5,0.3-0.6-0.3c-0.1-0.5,0.2-1.3-1.4-1.2c-1.6,0.1-1.9,0.2-2,0.8c-0.1,0.7-0.2,1.4-0.9,1.4c-0.7,0.1-0.8,0.1-1.1,0.7
		c-0.3,0.6,0.2,0.5,0.3,1c0.1,0.5,0,1-0.2,0.7s-0.4-0.9-0.7-0.7c-0.2,0.2-0.4,0.5-0.5,0.9c-0.1,0.3-0.4,0.3-0.4,0.9s0.3,1,0.1,1.1
		c-0.3,0.1-0.9-0.3-1-0.3s-0.1,0.7,0.3,0.8c0.4,0.1,0.7,0.2,0.8,0.3c0.1,0.2-0.1,0.3-0.3,0.3s-0.2-0.2-0.5,0c-0.3,0.2-1.4,1.6-1.2,2
		s0.4,0.7,0.6,0.9s-0.3,0.9-0.3,0.7s-0.2-0.7-0.8-0.6c-0.6,0.1-1.1,0.4-1.5,0.6c-0.4,0.3-0.6,0.5,0,0.7c0.6,0.2,0.6,0.2,0.5,0.4
		c-0.1,0.2-0.2,0.4-0.5,0.7s-1,0.1-1.4,0s-1-0.5-1.4-0.1c-0.4,0.4-0.2,0-0.9,0.3s-0.7,0.5-0.5,0.7s0.7,0.3,0.4,0.4
		c-0.3,0.2-0.6,0.3-1,0.2s0-1.1-0.4-0.9c-0.4,0.2-0.8,0.3-0.9,0.5c-0.2,0.2-0.1,0.5,0,1c0.1,0.5,0.8,1,0.8,1.2s-0.4,0.2-0.9,0.4
		c-0.5,0.2-0.4,0.1-1.7,0c-1.3-0.1-1.5-0.5-1.6-0.7c-0.1-0.2,0.7-0.7,0.9-1c0.2-0.3,0.1-0.4,0.3-0.5c0.3-0.1-0.1-0.9,0.1-0.9
		c0.2-0.1,0.6,0.4,0.8,0.1c0.2-0.3,0.5-0.8,1-0.8c0.5,0,1.1-0.4,1.4-0.5c0.3-0.1,0.8-0.1,0.2-0.2c-0.5-0.1-0.2-1.1-0.8-1.5
		s-0.4-0.9-0.9-0.8c-0.5,0.1-0.4,0.1-1.3,0.2c-0.8,0.1-0.9-0.2-1,0.2c-0.1,0.4-0.5-0.1-0.8,0.1c-0.3,0.2-0.4,0.3-0.3,1.1
		c0.1,0.8-0.1,1.1,0.3,1.5c0.4,0.4,0.8,0.9,0.6,0.9s-0.6,1.1-0.9,1.3c-0.3,0.1-0.7-0.1-0.9-0.7c-0.2-0.5-0.1-1,0-2.2
		c0.1-1.2-0.5-1.6-1-2c-0.5-0.4-0.9-1.3-1.3-1.4c-0.3-0.2-0.5,0.2-1.1-0.4c-0.6-0.7-1.1-1.5-2-1.2c-0.9,0.3-0.9-0.7-1.4-0.8
		c-0.5-0.2-0.2-0.6,0-0.7c0.2-0.1,0.3-0.5-0.3-0.7c-0.5-0.2-0.8-0.8-0.8-1.2s-0.1-0.5-0.5-0.7s-0.3-0.1-0.7,0.2s-0.2,0.6-0.6,0.4
		s-0.7-0.2-0.5-0.6s0.5-0.1,0.8-0.3c0.2-0.2,0.3-0.3-0.1-0.7c-0.4-0.4-0.6-0.7-0.9-0.4c-0.3,0.3-0.6,0.8-1.2,0.7
		c-0.6-0.1-0.7-0.8-0.9,0c-0.3,0.8-0.5,0.7,0,0.9c0.5,0.2,0.7,0.4,0.3,0.6c-0.4,0.2-1-0.1-0.6,0.7c0.4,0.8,0,0.9,0.9,1.5
		c0.9,0.6,1.2,0.5,1.6,1.2c0.4,0.7,0.2,1.1,0.5,1.4c0.3,0.3,0.6,1.1,1.1,1.5c0.5,0.4,0.6,1,1.3,1s1.3-0.3,1.2-0.1
		c-0.1,0.3-0.5,0.5-0.2,0.7c0.3,0.2,1,0.6,1.4,0.7c0.4,0.1,1.3,0.6,1.7,0.9c0.4,0.3,0.8,0.6,1,0.9c0.3,0.3,0.4,1,0.2,1
		s-0.4-0.4-0.8-0.7s-0.9-0.8-1.4-0.8c-0.4-0.1-1,0.7-1.1,0.9c-0.1,0.2-0.2,0.2,0.1,0.9c0.3,0.7,1,0.5,1,0.7c0,0.2-0.1,0.8-0.3,0.9
		c-0.3,0.1-0.3-0.2-0.5,0.4c-0.2,0.5-0.2,1.1-0.5,1.3c-0.3,0.1-0.5,0-0.7,0s0.2-0.3,0.4-0.9s0.2-1-0.1-2.1c-0.3-1-0.4-1-1-1.4
		c-0.7-0.3-0.9-1.2-1.1-1.3c-0.2-0.1-0.7,0-1-0.6c-0.4-0.6-0.7-0.8-1.3-0.7c-0.6,0.1-0.5,0-1.5-0.7c-0.9-0.7-2.9-3.3-3.3-3.6
		c-0.4-0.3,0.2-1.4-0.4-1.6c-0.6-0.2-0.6,0.2-1.1-0.4s-1.5-1.3-2-0.5c-0.5,0.8-0.9,1-0.8,1.3c0.1,0.3-0.2-0.3-0.3-0.6
		c-0.2-0.3-0.5-0.2-0.5-0.2s-0.9,0-0.6,0.3c0.3,0.3,1.2-0.4,0.3,0.3c-0.9,0.8-1.4,0.6-1.3,1.1s-0.2,0.7-0.4,0.8
		c-0.3,0.1-0.8-1-1.4-1.1s-2-0.4-2.5-0.2c-0.5,0.3-1.6,0.8-1.6,1.3s-0.3,1.1,0,1.4s0.5,0.3,0.5,0.7s-0.1,0.8-0.4,1
		c-0.3,0.2-0.4-0.1-1,0.5c-0.6,0.5-1.3,0.3-2.1,0.6c-0.8,0.3-1.3,0.5-1,0.9c0.3,0.4-0.4,0.6-1,1.5c-0.6,0.9-1.3,1-1.1,1.6
		s0,0.4,0.8,1c0.8,0.5,0.3,0.7-0.1,0.8c-0.3,0.1-0.7,0.6-0.8,1.2c-0.1,0.6-0.2,1.1-0.8,1.1s-0.9-0.3-1.1,0.5s-0.3,1-1.2,1
		c-0.9,0-1.4,0.1-2.1,0c-0.7-0.1-0.6-0.6-1.2,0c-0.6,0.6-1,0.2-1.3,0.7c-0.2,0.5-0.4,1-0.7,0.9c-0.2-0.1-0.2-1.2-0.7-1.4
		c-0.5-0.2,0.5-0.2,0-0.6c-0.5-0.4-0.5-0.6-1.2-0.7c-0.7-0.1-1-0.2-1.2,0.1c-0.2,0.3-0.6,0.6-1.4,0.3c-0.8-0.3-0.9-0.6-0.7-1.2
		c0.2-0.6,0.4-1,0.3-1.5c-0.1-0.5-0.6-0.2-0.4-0.7c0.2-0.5,0.5-0.8,0-0.7c-0.6,0.1-0.6,0.3-0.7,0.4c-0.2,0.1,0.3-0.7,0.4-1
		c0.1-0.4,0.2-0.4,0.7-1.1c0.5-0.7,0.6-0.2,0.9-0.4c0.3-0.2,0.3-0.3-0.1-0.5c-0.4-0.2-0.4-0.3-0.4-0.8c0-0.5-0.2-0.8-0.3-1.2
		s-0.2-2-0.1-2.2c0.1-0.2,0.4-0.6,0.3-0.8c-0.1-0.2,0-0.2-0.3-0.5c-0.3-0.3-1.5-0.6-1.2-0.8c0.3-0.2,0.6-0.5,1.5-0.4
		c0.9,0.1,1,0.3,0.9-0.3s0.4-0.9,0.7-0.6c0.3,0.3,0.1,0.8,1,0.5c0.9-0.2,1.1-0.7,2.1-0.3c1,0.4,1.9,0.6,2.3,0.4
		c0.4-0.2,0.7-0.3,1.4,0c0.8,0.3,0.3,0.3,1.1,0.1c0.8-0.2-0.2,0.4,0.6,0.3s1.1-0.5,1.3-0.2c0.2,0.3,0.7,0.4,0.7-0.2
		c-0.1-0.5-0.3-0.3,0-1.1c0.3-0.8,0.1-2.2,0.2-2.7c0.1-0.5,0.1-0.7,0.4-0.4c0.3,0.3,0.5,0.8,0.7,0.5c0.2-0.3,0.2-0.8-0.2-1.2
		s-0.8-0.5-0.7-1c0.1-0.4,0.8-1.4,0.1-1.4s-1.4-0.2-1.6-1s-0.1-1.9-0.6-2c-0.5-0.1-0.9,0-1.3,0s0.1-0.4-0.8-0.6
		c-0.9-0.2-1.1-0.4-1-0.7c0.1-0.3,0.4,0.1,0.1-0.3c-0.3-0.3-0.4-0.4-0.7-0.3c-0.3,0.2-0.8-0.4-0.3-0.4c0.4-0.1,0.9-0.2,1.3,0.1
		c0.4,0.2,0.5,0.5,0.8,0c0.3-0.5,0.3-0.7,0.4-0.3c0.2,0.4,0.4,0.8,0.6,0.6s2.1,0.4,2.2-0.1c0.2-0.5,0.5-1.2,0.3-1.5
		c-0.3-0.3-0.2-0.5-0.6-0.8c-0.4-0.3,0.1-0.7,0.3-0.4s0.4,0.9,1,0.9c0.6,0,0.4,0.1,1.2,0c0.8-0.1,1,0.4,1-0.2c0.1-0.6,0-0.8-0.4-0.8
		s0.2-0.5,0.4-0.4c0.3,0.1,0.3,0.4,1.1-0.3c0.8-0.7,1.1-0.4,1-1c-0.1-0.7-0.3-1,0-1.5c0.3-0.5,0.5-0.7,0.7-0.5
		c0.2,0.2,0.1,0.5,0.3,0.4c0.3-0.1,0.1-0.8,0.4-0.9s0.7-0.4,1-0.2c0.3,0.2,0.4,0.1,0.9,0.1c0.5-0.1,0.3-0.9,0.2-1.2
		c-0.1-0.3,0.2-0.2,0.6-0.9c0.4-0.7,0.5-0.5,0.7-1.2s0.4-1,0.9-1.3c0.5-0.3,0.4-1,1-1.1c0.5-0.1,0.8-0.1,1.1-0.1
		c0.3,0.1,0.4,0.1,0.4,0.5s-0.2,0.9,0.2,1.1c0.4,0.2,0.6,0.2,0.7-0.3c0.1-0.5,0.3-0.5,0.2-1.1s-0.9-0.9-0.4-0.9
		c0.5,0.1,1.3-0.4,1.1,0s-0.1,1.1,0.3,1s0.8-0.2,1-0.7c0.2-0.4-0.3,0.1,0.2-0.4c0.5-0.5,0.9-0.9,0.7-1.3c-0.3-0.4,0.1-0.3-0.3-0.4
		c-0.4-0.1,0.7-0.5,0.4-0.6c-0.3-0.1-0.7-0.6-0.7-0.7c-0.1-0.1,1.1-0.4,1.1-0.1c0,0.3,0.2,0.7,0.5,0.8s0.3,0.3,0.7,0.3
		c0.4,0.1,0.8,0.1,0.7,0.3c-0.1,0.2-0.4,0.1-0.3,0.4c0.1,0.3-0.2,0.7,0.2,0.6c0.4-0.1,0.7-0.1,1,0.1s0.3-0.2,0.8-0.4
		c0.5-0.2,0.3,0.2,0.9-0.4s1.1-0.5,1.4-0.3c0.2,0.2-0.1,0.6,0.2,0.7c0.3,0.1,0.5-0.3,0.8,0.3s0.3,0.7,0.6,0.8s0.1,0.5,0.1,0.9
		c0,0.4-0.3,0.9,0,0.8c0.3-0.1,0.4,0.1,0.5-0.6c0.1-0.7,0.7-0.1,0.6-0.8c-0.1-0.7-0.4-1.1,0.2-1.3s1.2-0.3,1.7-0.2
		c0.5,0.1,0.5-0.9,0.8-1c0.2-0.1,1-0.1,1.5-0.4c0.5-0.3,1.5-0.8,1.7-0.4s-0.1,1,0.3,1.1c0.3,0.1,0.8,0.7,1.3,0.3
		c0.5-0.4,0.4-0.3,1.3-0.4c0.9-0.1,1.2,0.3,2,0.1c0.8-0.2,0.4,0.3,1.4,0.2c0.9-0.2,1.1,0.1,1.5-0.2c0.3-0.2,0-0.3-0.2-0.4
		c-0.2-0.1,0.7-0.1,0.3-1s-0.5-1.1-1.1-1c-0.7,0.1-0.9,0-1.4-0.9c-0.5-0.9-1.3-0.9-0.8-1.2c0.5-0.3,1.1-0.7,1.1-1
		c-0.1-0.3-0.1-0.7-0.5-0.4s-0.7,0.1-0.5-0.3c0.2-0.4,0.2-1,0.5-1.3c0.3-0.3,0.4-0.9,0.4-1.4c0.1-0.5,0.1-0.3,0.7-0.5
		c0.5-0.2,0.8-0.4,1.1,0c0.4,0.4,0.4,0.7,0.6,1.1c0.2,0.4,0.3,1,0.9,0.8c0.5-0.2,0.9,0.1,1.2-0.5c0.3-0.6,0.3-1.2,0.3-1.8
		c0.1-0.6,0.3-1,0.5-1s0.9-0.1,0.8-0.3s-0.3-0.9-0.7-0.4c-0.4,0.5-0.5,0.1-0.2-0.4c0.3-0.4-0.1-1.1-0.4-0.8s-0.2,0.7-0.5,0.5
		s-0.6-0.7-0.3-1c0.3-0.3,0.7-0.9,0.1-0.8c-0.7,0.1-0.4-0.9-0.4-0.9s0.5-0.2,0.9-0.5c0.4-0.3,1.8-0.1,2.3-0.4s0.8-0.6,1.1-0.3
		s1,0.2,0.9,0.5c-0.1,0.3,0.6,0.1,1,0.2s0.2,0.1,0,0.4c-0.2,0.4-0.3,0.7-0.3,1c0,0.3-0.2,2-0.1,2.2c0.2,0.2,0.3,0.2,0.3,0.5
		s-0.3,0.9-0.4,1.1c-0.1,0.2-0.4,0.2-0.3,0.4c0.1,0.2,0.4,0.5,0.7,0.5c0.3,0.1,0,0.9,0,1.2s0.6,1,0.6,1.3c0,0.3-0.2,1,0.3,1.4
		c0.4,0.4,0.8,0.1,1.6,0.7c0.8,0.5,0.7,0.9,1,0.8c0.3-0.1,0.6-0.4,1-0.4c0.4,0,0.4,0.4,0.6,0.8s0.2,1.1,0,1.6s2.3,3.4,2.6,3.8
		c0.3,0.4,0.1,0.8-0.3,0.8s-0.8,0.2-1.1,0.2c-0.4,0.1-0.5,0.6-0.3,0.8s0.6,0.5,0.5,1.1c-0.1,0.7-0.3,1.2-0.1,1.4
		c0.2,0.2,0.8,0.3,1.1,0.4s0.9,0.3,0.9-0.3s0.1-0.5,0.5-0.3c0.5,0.2,1,0.3,1.2-0.1s0.4-0.7,0.4-0.1c0.1,0.6,0.6,0.4,0.3,0.8
		c-0.3,0.4-0.6,0.7-0.7,0.9c-0.1,0.3-0.1,1.1,0.7,1.3s0.6,0.3,0.9,0.9s1.3,1,1.7,1.1s0.5-0.5,0.9,0s1.1,0.9,1.5,0.7
		c0.4-0.2,0.6-0.7,0.9-0.3c0.3,0.4,0.6,1.3,0.9,0.9c0.3-0.4,0.7-0.3,1.4,0.1"/>
	<path id="XMLID_53_" class="st2" d="M385.3,357.3l0.6,1.3c0,0,28.9-32.4,37.6-80l-0.2-1.2"/>
	<g id="XMLID_215_">
		<path id="XMLID_214_" class="st4" d="M314.4,321.7c0,0-0.5,10.7,0,13.3c0.5,2.6,2.3,11.5,6.4,13.3c0,0-21.6,26.4-53.9,0
			c0,0,6.4-6.8,8.1-9.9c1.7-3.1,0-16.7,0-16.7"/>
		<g id="XMLID_208_">
			<path id="XMLID_213_" class="st5" d="M322.7,254.9c0,0,6.3,33.6-3.3,59.2c-26.1,43.9-45.4,6.1-52.5-4.9
				c-7.1-11-5.8-47.4-5.8-47.4"/>
			<path id="XMLID_212_" class="st6" d="M295.9,356l-25.7-15.3c0,0-25-2-33.8,14c-9,31,0,97.5,0,97.5h119.1c0,0,7.9-91.9-2.6-100.8
				c-9.7-8.2-35.3-10.6-35.3-10.6L295.9,356"/>
			<path id="XMLID_211_" class="st7" d="M271.6,265.5c0,0,23.4,11.5,43.7,0.9c8.6,15.4,8.6,15.4,8.6,15.4l6-15.4l-5.6-17.9
				c0,0-34.8-15.4-64.2,0c0,0-2.8,3.9-2.8,10.4c0,6.6,2.8,22.9,2.8,22.9"/>
			<path id="XMLID_210_" class="st5" d="M321.8,286.7c0,0-1-10.4,8.4-5.2c1.1,3,3.1,22.2-8.4,17.8"/>
			<path id="XMLID_209_" class="st5" d="M264.5,286.7c0,0,1-10.4-8.4-5.2c-1.1,3-3.1,22.2,8.4,17.8"/>
		</g>
	</g>
</g>
</svg>
