<?xml version="1.0" encoding="utf-8"?>
<!-- Generator: Adobe Illustrator 19.0.0, SVG Export Plug-In . SVG Version: 6.00 Build 0)  -->
<svg version="1.1" id="Layer_1" xmlns="http://www.w3.org/2000/svg" xmlns:xlink="http://www.w3.org/1999/xlink" x="0px" y="0px"
	 viewBox="0 0 500 500" style="enable-background:new 0 0 500 500;" xml:space="preserve">
<style type="text/css">
	.st0{fill:#FFFFFF;}
	.st1{fill:#FFFFFF;stroke:#FFFFFF;stroke-miterlimit:10;}
	.st2{fill:#FDD1A8;}
	.st3{fill:#C0E7F2;stroke:#70CFEF;stroke-miterlimit:10;}
	.st4{fill:#EAD2BE;}
	.st5{fill:#F5A6C8;}
	.st6{fill:#404040;}
	.st7{fill:#EF4858;stroke:#F27295;stroke-miterlimit:10;}
	.st8{fill:#EAD2BE;stroke:#E48DA0;stroke-miterlimit:10;}
	.st9{fill:none;stroke:#8B4441;stroke-miterlimit:10;}
	.st10{fill:#F0D68D;}
	.st11{fill:#FFF8B6;}
	.st12{fill:#FDC05D;}
	.st13{fill:#3D3D3E;}
	.st14{fill:#4D4D4F;stroke:#FFFFFF;stroke-width:0.5;stroke-miterlimit:10;}
	.st15{fill:#EAE0EF;}
</style>
<path id="XMLID_118_" class="st0" d="M261.6,214.1"/>
<path id="XMLID_117_" class="st0" d="M261.6,214.1"/>
<path id="XMLID_116_" class="st0" d="M252.4,211.4"/>
<path id="XMLID_115_" class="st1" d="M231.7,245.8c-0.2,0.4,0.6,1,0.7,0.6c0.2-0.4,0.3-0.6,0.5-1.3c0.2-0.7,0.1-1,0.2-1.3
	c0.2-0.3,0.2-0.5,0.6-0.4c0.4,0.1,0.3,0,0.3,0.6s-0.2,0.6-0.1,1.1c0.1,0.5,0.6,0.6,0.4,1.4c-0.2,0.8-0.5,1.2-0.5,1.7
	c0,0.5,0.3,1.1,0.5,0.9c0.2-0.2,0.5-0.5,0.7-0.7c0.1-0.2,0.3-0.7,0.6-0.5c0.2,0.1,0.5,0.1,0.7,0.7c0.2,0.5,0.3,0.3,0.7,0.6
	c0.4,0.3,0.6,0.4,0.8,0.7s0.3-0.3,0.3-0.6s-0.1-0.8,0.3-0.7c0.4,0.1,0.4,0.2,0.7,0.5c0.2,0.2,0.3,0.2,0.7-0.1s0.9-1.3,1.1-1.1
	c0.2,0.2,0.6,0.6,0.3,0.9c-0.2,0.2-0.6,0.1-0.9,1c-0.3,0.9,0,1.3-0.3,1.6s-0.3,0.1-0.4,0.5c-0.1,0.4,0.1,0.8-0.3,1.1
	c-0.4,0.3-0.1,0-0.6,0.6c-0.5,0.6-0.2,0.7-0.9,0.9s-1.1,0.5-1.3,0.8s-0.2,0.7-0.5,0.8s-0.8-0.1-1,0c-0.2,0.1-0.7-0.2-0.7,0
	c-0.1,0.2-0.8,0.5-0.9,0.7c-0.1,0.2-0.3,0.5-0.4,0.6c0,0.2-0.1,0.4-0.8,0.4c-0.7,0-0.7,0-0.9,0.3c-0.2,0.3-0.1,0.9-0.5,0.9
	c-0.4,0-0.7-0.3-0.8,0c-0.1,0.3,0.1,0.6,0.3,0.5c0.2-0.1,0.5,0.1,0.9,0c0.4-0.1,0.3-0.5,0.4-0.8c0.1-0.2,0.5-0.4,0.7-0.4
	c0.2,0,0.5,0.2,0.6,0.1s0.4-0.4,0.5-0.6s0.7-0.7,1-0.5c0.3,0.2,0.7,0,0.7-0.2s0.3-0.4,0.6-0.5c0.2-0.1,0.9-0.1,1.1-0.2
	c0.2-0.1,1-0.2,1.1-0.4c0.2-0.2,0-0.7,0.1-0.9c0.1-0.2,0.8,0,1.1-0.3s0.5-0.9,0.7-1.1s0.6,0,0.8-0.3c0.2-0.3,0.5-0.9,0.8-1.3
	s0.9-0.8,1.2-1s0.6-0.5,0.9-0.6c0.3-0.1,0.7,0.1,0.9-0.2c0.2-0.3-0.2-0.6,0-0.9c0.2-0.3-0.2-0.1,0.2-0.3c0.5-0.2,0.6-0.5,0.2-0.7
	s-1.1-0.2-0.8-0.6c0.3-0.4,0.9-1.3,1.1-1.5c0.2-0.2,0.6-0.4,0.8-0.7c0.2-0.2-0.2-0.6,0-0.8c0.2-0.2,0.7-0.5,0.9-0.8
	c0.3-0.3,0.4-1,0.7-1.1c0.3-0.1,1.8-1.1,2.2-1.1c0.4,0,0.8,0,0.9,0.2c0.1,0.3,0,0.5-0.2,0.7c-0.2,0.2-0.3,0.4-0.5,0.4
	c-0.2,0-0.5-0.3-0.7-0.3s-0.2,0.1-0.4,0.3c-0.2,0.2-0.5,0.4-0.7,0.7c-0.1,0.3-0.2,0.5,0,0.8c0.2,0.3,0.2,0.4,0.4,0.6
	c0.2,0.2,0.4,0.5,0.1,0.7c-0.2,0.2-0.6,0.1-0.6,0.3c0,0.2,0.5,0.1,0.4,0.4c-0.1,0.3-0.2,0.4-0.5,0.6c-0.3,0.2-0.6,0.5-0.5,0.6
	s0.4,0,0.7-0.1s0.5-0.4,1-0.6c0.5-0.2,0.6-0.5,0.9-0.9c0.3-0.4,0-0.6,0.5-0.6s0.6-0.4,0.9-0.1c0.3,0.2,0.6,0.5,0.6-0.1
	c0-0.6,0.1-0.5-0.2-0.8s-0.6-0.7-0.3-0.7c0.3-0.1,0.1,0.3,0.3-0.1s-0.5-0.5-0.3-0.8c0.2-0.3,0.8-0.6,1.2-0.6c0.5,0,0.3,0.1,0.7,0.4
	c0.4,0.2,0.4-0.4,0.9-0.2s0.6,0.2,0.7,0.7s0.1,0.6,0.5,0.8c0.4,0.2,0.8,0.2,0.9,0.6c0.1,0.4,0.1,0.5,0.7,0.4
	c0.6-0.1,0.9,0.2,1.3,0.5c0.5,0.4,1,0.4,1.3,0.2s0-0.6,0.8-0.4c0.8,0.2,0.9,0,1.3,0.5c0.4,0.5,0.5,0.7,1.1,0.5s0.8-0.4,1.3-0.5
	c0.5-0.1,0.8-0.4,0.5-0.4c-0.3,0-0.6-0.3-0.9-0.2c-0.4,0.1-1.2,0-1.4-0.1s-0.5-1-0.4-1.4s0.4-28.4,0.4-28.4s0.1-0.8-0.2-0.6
	c0,0-0.6,0.7-1,0c-0.4-0.7-0.6-1.8-1.7-1.7c-1.1,0.1-1-0.6-1.3-0.5c-0.3,0.1-0.5,0.1-1,0.3c-0.5,0.2-1,0.2-1.4-0.1
	c-0.4-0.2-0.7-0.7-1.9-0.7c-1.2,0-1.4-0.1-1.9-0.5s-0.7-0.5-1.3-0.5C251.1,210.9,236.9,230.7,231.7,245.8z"/>
<path id="XMLID_114_" class="st0" d="M415.1,171.1c-0.1,0.3-0.9-0.5-1.3,0s-0.2,0.6,0,1c0.2,0.4-0.2,0.3-0.3,0.8
	c-0.1,0.5-0.7,3.3-0.8,4.1c-0.1,0.8-0.3,2,0.1,2.1c0.4,0.1,1-0.3,1-0.7c0-0.3,0.1-0.6,0.1-0.8s1.5,0.6,1.7,0.9
	c0.3,0.3,0.3,0.7,0.3,0.7s-0.8-0.3-1.1-0.3c-0.3,0-0.9,0-0.8,0.9c0.1,0.9-0.3,1.3,0.3,1.3s0.6-0.6,0.8-0.4c0.2,0.1,0.5,1.2,1,1.2
	s1-0.8,1,0c0.1,0.8-0.1,1.6-0.1,2c-0.1,0.3-0.5,0.2-1.5,0s-1.9-0.3-1.9-0.1s0.1,0.4-0.2,0.7c-0.3,0.3,0.1,0.5-0.3,0.3
	c-0.5-0.2-0.9-0.6-1.3-0.4s-0.7,0.1-0.6,0.5s1.1,0.6,0.7,0.8c-0.3,0.2-0.6,0.1-0.3,0.6c0.3,0.4,1.6,1.7,1.7,2.1c0.1,0.4,0.9-0.1,1,0
	s0,0.6-0.3,0.8c-0.3,0.2-0.6,0.3-0.3,0.6c0.3,0.3,1,0,1.3,0.6c0.3,0.6,0.4,0.5,0.3,1.2c-0.1,0.7-0.1,0.9,0.1,1.4
	c0.1,0.5-0.1,0.6-0.8,0c-0.7-0.6-1.2-0.6-1.5-0.8c-0.3-0.2-1.5,0.2-1.2,0.4c0.3,0.2,0.3,0.4,0.6,0.4s1.1,0.1,0.7,0.4
	c-0.4,0.3-0.6,0.2-0.7,0.8c-0.1,0.6-0.4,1.2-0.1,1.1c0.3-0.1,0.8-0.3,1-0.6c0.1-0.2,0.6,0.2,0.4,0.6c-0.1,0.4-0.6,0.7-0.6,1
	c-0.1,0.3,0.4,0.4,0.8,0.4c0.3,0,0.6,0.1,1,0s0.2,0,0.2,0.8c0,0.8-0.2,1.4-0.6,0.7c-0.4-0.7-0.5-0.6-0.9-0.7c-0.4-0.1-1-0.8-1.3-0.6
	c-0.3,0.3-0.3,0.6-0.4,1c-0.1,0.4-0.8,0-0.6,0.6s0.2,0.7,0.4,1.2c0.2,0.5,0.4-0.5,0.8,0c0.3,0.5,0.6,0.5,1.1,0.6
	c0.5,0.1,0.2-0.1,0.2,0.6s0.3,1.5-0.1,1.6c-0.4,0.1-1.1-0.4-1.5,0c-0.4,0.4-0.2,1.2-0.6,0.9s-0.7-1-1.3-1c-0.6,0-1-0.3-0.9-0.8
	c0.1-0.5-0.1-1.1-0.6-0.9c-0.5,0.2-0.2,0.5-0.7,0.6c-0.5,0.1-1,0.3-0.6,0.7s0.1,0.5-0.3,0.8c-0.3,0.3-0.6,0.3-1.4,0.1
	s-1.1-0.2-0.9,0.6c0.2,0.8,0.2,1.3,0.8,1.1c0.6-0.2,0.8-0.5,1.1,0.1c0.3,0.5,0.2,0.3-0.3,0.4c-0.6,0.1-1.2,0.1-1.2,0.6
	c0,0.4,0.3,1.4,0.8,1.2c0.5-0.2,0.7-0.6,1.1-0.7c0.4-0.1,0.8,0.6,0.9,0.7s-0.4,0.3-1,0.4c-0.6,0.1-0.6-0.1-0.6,0.7
	c0.1,0.8,0.7,1.4,0.9,1c0.2-0.3,0.3-0.5,0.3-0.8c0-0.3,0.1-0.9,0.9-0.1c0.8,0.8,2.7,1.4,2.2,1.7c-0.5,0.3-0.9,1-0.6,1.2
	c0.3,0.2,0.1-0.1,0.6-0.3c0.5-0.2,1.1-0.1,0.8,0.4c-0.3,0.5-0.8,0.7-0.5,1.3c0.3,0.6,0.3,0.6,0.7,1.5c0.4,0.8,0.7,0.9,0.6,1.6
	s-0.6,0.5-0.9,0c-0.3-0.5-0.7-0.8-0.6-0.3c0,0.4,0.4,1.1-0.4,0.8s-1.9-1.5-1.8-1.9c0.1-0.4,0.6-0.8,0.1-1.4
	c-0.5-0.6-0.7-0.8-1.1-0.8s0-0.6-0.8-0.7c-0.8-0.1-0.7,0.1-1.4-0.5c-0.7-0.6-1-1.1-1.3-0.8c-0.2,0.3-0.5,0.6-0.1,1
	c0.3,0.4,0,0.6,0.8,1c0.8,0.3,1.7,0.2,1.7,0.2s0.5,0.4,0.1,0.8c-0.3,0.3-1,0.3-1.4,0.7c-0.3,0.3-1.2-0.4-1.8,0
	c-0.6,0.4-0.7,0.3-0.6,1c0.1,0.6-0.2,0.1-0.2,1s0.1,1.1,0.8,0.9c0.7-0.2,1.3-0.1,1.3,0.1c0,0.2-0.8,0.6-1.3,0.8
	c-0.5,0.2-0.6,0.1,0,0.6s0.8,1.2,1.1,0.5c0.3-0.7,0.6-0.7,1.1-0.9s0.3-0.6,1.2-0.6s1.1,0,1.9,0.2c0.8,0.2,0.6,0.3,1.6,0.3
	s1.1,0.2,0.5,0.6c-0.5,0.3-1.2-0.1-1.4,0.2c-0.1,0.3,0.1,0.6-0.3,1.1c-0.4,0.6-0.5,0.7-1.2,1.4c-0.7,0.7-0.7,0.3-1.4,0.8
	s-1,0.3-0.8,1c-0.8,0.6-1,0.6-1.2,0.8c-0.2,0.2-0.7-0.4-1.4,0c-0.7,0.4-0.9,0.6-1.7,0.9c-0.8,0.3-1.7-0.3-1.9,0
	c-0.1,0.3-0.3,1.2-1,0.4s-0.7-2-1.1-1.8c-0.4,0.1-0.8,0.1-0.8,0.4c-0.1,0.3,0.1,1.5,0.4,1.7c0.3,0.2,0.8,0.5,0.6,0.7
	s-0.6,0.2-0.7,0.6c-0.1,0.3-0.9,0.1-1,0.5c-0.1,0.4-0.1,1.4,0,2c0.1,0.6-0.3,0.3-0.8,0.9c-0.5,0.6-0.3,0.1-1,0.9
	c-0.7,0.8-0.8,0.6-1.3,1.2c-0.5,0.6-0.2,0.6,0,0.9s-0.9,0-1.5,0c-0.6,0-0.9-0.6-0.7-0.8s0.8-1.3-0.1-1c-0.8,0.3-1.4,0.6-1,1
	c0.3,0.3,0.1,0.2-0.1,0.7c-0.2,0.5,0.1,1.3-0.3,1.3s-0.8,0.1-1.4,0c-0.6-0.1-1-0.8-1,0.1c0.1,0.8,0.2,1.1,0,1.2
	c-0.2,0.1-0.6,0.1-1,0.4c-0.3,0.3-0.2,0.3,0,1c0.2,0.7,0.8,0.8,0.8,1.2c-0.1,0.3-0.6-0.5-1,0c-0.3,0.5-1.1,0.8-0.6,1
	c0.5,0.2,1,0.3,1.3,0.5c0.2,0.1-0.2,0.3-0.6,0.6s-0.8,0.8-0.3,0.7s-0.6,0.6-0.5,1.1s0.3,0.8-0.3,0.8s-0.8-0.5-1,0s-0.2,0.6,0,1
	s0.4,0.2,0.6,0.8c0.2,0.6,0.5,1.3,0.1,2s-0.8,2.4-1.4,2.6c-0.6,0.2-0.9,0.3-0.6,0.8s1.1,0.8,0.6,0.8s-0.1-0.7-0.7-0.4
	c-0.6,0.3-0.9,0.4-1.2,0c-0.3-0.4-0.5-0.5-0.7-1c-0.2-0.5-0.2-1-0.4-1.1s-0.8-0.7-1.1-0.3s-1.5,0.9-1.8,0.8
	c-0.3-0.1-0.2-0.5-0.5-0.7c-0.3-0.2,0.3-0.6,0-0.9s-0.4-0.6-0.6-0.5c-0.2,0.2-0.4-0.3-0.4-0.6s-0.2-0.2-0.4-0.3
	c-0.2-0.1,0.2-0.3,0.4-0.7s0.2-0.9,0-0.8s-0.5,0.2-0.8,0.5c-0.3,0.3-1-0.6-1.1-0.8s0.5-0.8,0.3-0.8c-0.2,0-0.3-0.3-0.8-0.3
	c-0.2-0.5-0.3-0.8-0.7-1.1c-0.4-0.3-0.1-0.7-0.3-1.2c-0.2-0.5-0.2-0.9-0.3-1c-0.1-0.1,0.5-0.4,0.7-0.6c0.2-0.3,0.4-0.2,0.7-0.3
	c0.3-0.1,0.4-0.4,0.3-0.6c-0.1-0.2,0-0.3,0.3-0.3c0.3,0,0.4,0,0.4-0.3c0-0.3-0.3-0.6-0.7-0.6s-0.8,0.2-1.1,0.3s-0.4,0-0.7,0.3
	c-0.2,0.3-0.6,0.3-0.5,0.5c0.1,0.3-0.3,0.2-0.4,0s0.2-0.6,0.2-1.1s0-0.5-0.2-0.8c-0.3-0.3-0.4-0.4-0.2-0.9c0.2-0.5,0.3-0.6,0.1-0.8
	s-0.9-0.5-0.9-0.8s-0.2-0.5-0.5-0.6c-0.3-0.2-0.5-0.3-0.3-0.6s-0.4-0.6,0-0.8c0.3-0.2,0.7-0.5,0.6-0.7c-0.1-0.2-0.6,0-0.4-0.3
	c0.2-0.3,0.5-0.6,0.2-0.8c-0.2-0.2-0.7-0.1-0.8-0.5c-0.1-0.3-0.3-0.6-0.2-0.9c0.1-0.3,0.6-0.1,0.6-0.4c0-0.3-0.2-0.4-0.2-0.6
	s0.7-0.9,0.8-1.3s0.4-0.4,0.9-0.2c0.5,0.2,0.9,0.2,1.2,0.1s0.4-0.3,0.6-0.7s0.2-0.9-0.1-0.8c-0.3,0.1-0.6,0.2-0.8,0.3
	c-0.2,0.1-0.5-0.2-0.8-0.3c-0.3,0-0.4,0-0.6,0.2c-0.2,0.2-0.5-0.1-0.2-0.3s0.4-0.6,0.6-0.6s0.6,0.1,1,0c0.4-0.1,0.7,0.1,0.9-0.1
	c0.2-0.2,0.2-0.8,0.1-1.2c-0.1-0.4-0.3-0.5,0-0.6c0.2-0.1,0.1,0,0.4,0.2c0.3,0.1,0.7-0.2,0.6-0.5c0-0.3,0.1-0.8-0.3-0.8
	c-0.3,0-0.8-0.2-0.7-0.3c0.1-0.1,0.2-0.3,0.5-0.2c0.3,0,0.3-0.5,0.4-0.8s0.1-0.5-0.1-0.7c-0.2-0.2,0.2-0.3-0.5-0.4
	c-0.7-0.1-0.3-0.6-0.9-0.4c-0.6,0.2-0.9,0.4-1.2,0.3c-0.3,0-0.5-0.6-1.1-0.9c-0.6-0.3-0.5-0.1-0.8-0.6c-0.3-0.5-0.3-0.6-0.6-0.9
	c-0.3-0.3-0.3-0.7,0.6-0.7c0.8,0,1.1,0,1.5,0.6c0.5,0.6,0.9,0.8,1.2,0.8c0.3,0,0.5,0.5,0.8,0.5s0.8,0.3,1,0.1c0.2-0.2-0.2-1-0.5-1.1
	c-0.3-0.1-0.4-0.4,0.1-0.6s-0.7-1.9-1.2-1.9s-1.1-0.1-0.9-0.2c0.2-0.1,0.6-0.5,0.6-0.6c-0.1-0.2-0.2-0.5-0.5-0.5
	c-0.3,0-0.1-0.2,0.2-0.4c0.3-0.2,0.2-0.8,0.2-0.8s-0.2,0.1-0.5,0.1c-0.3,0-0.3-0.4-0.4-0.6c-0.2-0.2-0.4-0.4-0.6-0.3
	c-0.2,0.2-0.2-0.7-0.6-0.6s-0.6,0.3-0.7,0.6c0,0.3-0.4,0.4-0.5,0.8s0,1-0.3,1s-0.4-0.2-0.8-0.2c-0.4,0-0.9-0.3-0.4-0.6
	c0.5-0.3,1-0.4,0.8-0.7c-0.2-0.3-0.3-0.6-0.6-0.6s-0.2-0.4,0.4-0.7s1-1.1,0.9-1.3c0-0.3,0-1.9-0.2-2.1s-0.3-0.7-0.7-0.7
	s-0.8,0.1-0.9,0c-0.1,0-0.2-0.1,0-0.3c0.2-0.2,0.7-0.8,0.4-1.1c-0.3-0.3-0.2-0.7-0.6-1c-0.4-0.3-0.3-0.4-0.3-0.6
	c0-0.2,0.3-0.1,0.3-0.5c0.1-0.4-0.2-0.2-0.3-0.6c-0.1-0.5-0.1-0.9-0.3-1.3c-0.2-0.5,0-0.4,0-0.9c0-0.6,0.3-0.6-0.1-1.2
	c-0.4-0.6-0.4-0.8-0.8-0.8c-0.4,0,0.1-0.1,0-0.6c-0.1-0.5-0.3-0.5-0.6-0.6s-1.4-1.7-1.4-2.2c0-0.5,0.4-1.5,0-1.8
	c-0.4-0.3-0.9-1.2-1.2-1.2s-0.5,0.6-0.6,0.4s-0.6-1.1-0.9-1.1s-0.6,0.2-0.8,0s-0.3-0.8-0.6-0.9s-0.4-0.2-1-0.2
	c-0.6,0-0.8-0.7-1.4-0.6c-0.5,0.1-0.8,0.5-1,0.7c-0.2,0.2-0.3,0.2-0.5-0.3s-0.4-0.9-0.5-0.4s-0.1,0.9-0.4,1.1
	c-0.3,0.2-0.3,0-0.6,0.3s-0.7,0.9-0.7,0.5c0-0.4,0-0.7,0.2-1c0.1-0.3,0.4-0.8-0.2-0.7c-0.6,0.2-0.5,0.3-0.9,0.5s-0.3,0.3-0.6,0.5
	s-0.2,0.3-0.5-0.2c-0.3-0.5-0.5-0.7-0.6-0.3c-0.1,0.4-0.1,0.7,0.3,1c0.4,0.3,0.3,0.2,0.5,0.6c0.2,0.4,0,0.2-0.3,0.2
	c-0.3,0-0.2,0.2-0.6-0.1c-0.4-0.3-1.3-0.8-1.7-1.2s-0.3-0.5-0.4-1.1c-0.1-0.6-0.2-0.8,0.3-1c0.5-0.2,1.1-0.6,1-0.9s-0.3-0.6-0.6-0.8
	c-0.3-0.2-0.1-0.3-0.7-0.4c-0.6-0.2-1.2-0.2-1-0.6s0.3-0.5,0-0.6c-0.3-0.1-0.6-0.2-0.6,0c0,0.2,0.1,0.5,0,0.8
	c-0.1,0.3-0.2,0.5-0.3,0c-0.1-0.4-0.2-0.4-0.5-0.7s-0.8-0.2-0.8-0.4c0-0.2,0.3-0.5,0.6-0.6c0.3-0.2,0.4-0.3,0.8-0.2
	c0.4,0.1,0.6,0.1,0.9,0.2s0.7,0.5,1.1,0.3c0.4-0.2,0.7-0.5,1-0.3s1,0.2,1.3,0.5c0.3,0.3,0.6,0.1,1.1,0c0.5-0.2,0.9-0.2,0.9-0.6
	c0.1-0.4,0.1-1.2-0.1-1.4s-0.3-0.5-0.2-0.8c0.1-0.4,0.2-0.3-0.2-0.8c-0.3-0.4-0.4-1.2-0.6-1.2c-0.3,0-0.3-0.1-0.5,0.4
	c-0.2,0.5-0.4,0.8-0.5,1c-0.2,0.3-0.3,0.5-0.5,0.4s-0.7-0.1-0.9-0.4c-0.2-0.3-0.5-0.8-0.7-0.6c-0.2,0.2-0.2,0.4-0.1,0.6
	c0.2,0.2,0,0.2-0.2,0.5s-0.4,0.5-0.5,0.3c-0.1-0.2-0.2-0.3-0.4-0.5c-0.2-0.2,0-0.2,0.2-0.6c0.2-0.3,0.1-0.7-0.2-0.8
	c-0.3-0.1-0.1-0.4-0.8-0.6c-0.6-0.3-0.3,0.2-1-0.2c-0.7-0.3-0.9,0.2-1.2-0.2c-0.3-0.4-1-0.9-1.1-1.3s-0.2-1.2,0-1.6
	c0.2-0.4,0.8-1.1,1.2-1.5c0.5-0.4,0.6-0.2,0.9-0.3c0.4-0.2,0.4-0.5,0.3-0.6s0.8-0.1,0.9-0.4c0.2-0.3,0.2,0.3,0.5,0s0.4-0.8,0.5-0.7
	c0.2,0.1,0.6,0.5,0.7,0.2c0.2-0.3,0-0.8-0.2-0.9c-0.2-0.1,0.3-0.7,0.5-0.5c0.2,0.2,0.7,0.6,0.9,0.5c0.2,0,0.7,0.1,0.6-0.2
	c-0.1-0.2-0.2-0.7,0.1-0.6c0.3,0.2,1.3,0.1,1.6,0c0.3-0.1,0.3-0.1,0.9-0.8c0.6-0.7,0.6-0.6,1-1.4c0.4-0.8,0.5-1.4,0.4-1.8
	c-0.1-0.4-0.3-1.2-0.6-1.4c-0.3-0.1,0.2-0.2,0.5-0.2c0.3,0,0.8,0,0.6-0.3c-0.2-0.3-0.1-0.6-0.5-0.8c-0.3-0.2,1-0.9,0.7-1.2
	c-0.3-0.3-0.2-0.8-0.7-0.5c-0.5,0.2-0.9,0.4-1.1,0.6s-0.6,0.6-0.9,0.4s-1.5-0.6-1.7-1.4c-0.2-0.8-0.5-0.8-0.3-1.2
	c0,0,0.4-4.6,1.9-5.6c1.5-1,31.9-3.7,63.2,7C413.9,169.6,415.1,171.1,415.1,171.1z"/>
<path id="XMLID_112_" class="st0" d="M297.5,197.2c0,0-0.2-0.1-1.1,0.7c-0.9,0.8-0.9,1.1-1.8,1.8c-0.9,0.7-2.2,1.3-2.1,1.7
	c0.1,0.5-0.5,1.7-0.9,2s-0.6,0-0.6,0.5c0,0.5,0.1,0.9,0,1.3c-0.1,0.5-0.1,0.8-0.3,0.9c-0.2,0.2-0.5,0.1-0.8,0.3s-0.5-0.7-0.7-0.4
	s-0.2-0.1-0.5,0.5c-0.2,0.5-0.9,0.8-1.1,1.1c-0.2,0.3-0.3,0.2-0.4-0.3s-0.4-1.1-0.6-1.5c-0.3-0.4-0.4-0.8-0.8-0.8
	c-0.4-0.1-0.6-0.5-1.2-0.7c-0.6-0.2-0.4-1.5-0.2-1.8c0.2-0.3,0.6-0.3,0.6-0.7c0-0.3,0-0.9,0-1.4c-0.1-0.4,0.1,0.1,0.2-0.4
	c0.1-0.6,0.1-1.1,0.2-1.8c0.1-0.6,0.2-0.5,0.6-1c0.3-0.4,0.5-1.2,0.6-1.7c0-0.4-0.2-0.8-0.5-1.1c-0.3-0.3,0.3-0.9-0.1-1.1
	c-0.4-0.2-0.8-0.4-0.2-0.7c0.6-0.3,0.6-0.3,0.9,0c0.3,0.3,0.6,0.4,0.7,0c0.2-0.4,0.4-0.1,0.9-0.3c0.5-0.2,0.9-0.6,1.1-0.7
	c0.2-0.1,0.2,0.2,0.6,0.6c0.4,0.3,0.7,0.4,1.1,0.7c0.3,0.3,0.2,0.4,0.6,0.7c0.3,0.3,0.4,0.1,0.8,0.1s-0.2,0,0.2,0.3
	c0.5,0.3,0.7,0.4,0.8,0c0-0.4-0.3-0.7,0-0.8c0.4-0.1,0.6-0.2,1.1,0.1s0.5,0.4,1,0.9s0.5,0.6,0.9,1.2c0.4,0.6,0.4,0.6,0.7,1.1
	C297.4,197,298,197,297.5,197.2z"/>
<path id="XMLID_111_" class="st0" d="M294.5,203c0,0-0.1-1.2,0-1.3c0.1-0.1,1-0.8,1.5-1.2s2.3-1.9,2.6-2c0.4-0.1,0.4-0.2,0.6,0
	s0.2,0.6,0.2,0.9c0,0.3-0.3,0.3-0.3,0.6c0,0.3,0.2,0.6,0,0.9c-0.2,0.3-0.5,0.6-0.3,0.8c0.2,0.2,0.4,0.6,0.8,0.2
	c0.4-0.4,0.4-0.1,0.7-0.1c0.2,0,0.7-0.2,0.6-0.6c-0.1-0.4-0.3-0.9-0.2-1c0.1-0.1-0.2-0.3,0.3-0.2c0.4,0.2,0.3,0.2,0.9,0.4
	c0.6,0.2,1.7,0.6,1.4,0.8s-0.7,0.3-0.6,0.7s-0.2,0.6,0.5,0.6c0.7,0.1,1.3,0,1.3-0.3c0-0.3,0.1-0.4,0.6-0.3c0.4,0,0.7,0.3,0.7-0.2
	c0-0.5,0.1-0.5-0.2-1c-0.3-0.4-0.6-0.6-0.4-0.7c0.2-0.1,0.4,0,0.6,0.3c0.3,0.3,0.1,0.6,0.6,1.2c0.5,0.5,0.6,1.2,0.7,1.5
	c0.2,0.4,0,1.6,0.2,2c0.2,0.3,0.5,0.8,1,0.4s0.7,0,0.6-1.1c-0.1-1,0-1.4-0.3-1.7c-0.3-0.3-0.2-1.5-0.2-2c0.1-0.5,0.4-1.1,0.2-1.3
	c-0.2-0.2-0.8-0.6,0.3-0.6c1.1,0.1,0.3,0.1,1,0.5c0.4,0.5,0.4,0.6,0.9,0.8s0.3,0.2,0.6,0.5s0.3,0,0.2,0.7c-0.1,0.7,0.2,1.5,0.4,2
	c0.2,0.6,0.4,1.6,0.7,2c0.3,0.4-0.2,2.2-0.4,2.4c-0.2,0.2-0.3,0.5,0.2,0.7c0.5,0.2,1.2,0.7,1.4,1.2c0.2,0.4,0.4,1,0.7,0.9
	c0.4,0,0,0.4,0.4,0c0.4-0.4,0.4-0.6,0.5-0.1c0.2,0.5,0.3,0.6,0.6,0.8c0.4,0.2,0.4,0.6,0.9,0.6c0.4,0.1,1.1,0.3,1.2,0.6
	c0.1,0.3,0.2,0.6,0.2,0.7s-0.5-0.2-0.7,0c-0.2,0.2,0.2,0.2-0.2,0.2s-0.5-0.1-0.6-0.4c-0.1-0.3,0-0.5-0.2-0.5s-0.2-0.1-0.6,0.4
	c-0.3,0.5-0.3,0.5-0.7,0.9c-0.4,0.4-0.8,1-0.5,1.3c0.3,0.3,0.4,0.5,0.6,0.4s0.3-0.5,0.4-0.6c0.1-0.2,0.4-0.1,0.4,0.3
	s-0.3,0.6,0.2,0.6c0.5,0,0.6,0,0.2,0.4c-0.4,0.4-0.7,0.8-1.1,0.8s-0.6-0.4-1.3-0.2s-1.2,0-1.1-0.2s0.3-0.6,0-0.8s-0.2-0.1-0.9-0.1
	c-0.7,0-1.1-0.2-1.4-0.6s-0.4-0.6-0.8-0.3c-0.4,0.3-0.4,0.1-0.6,0.6s-0.2,0.6-0.4,0.8s-0.3,0.1-0.9,0.2c-0.6,0.2-0.9,0-1.1,0.3
	s-0.2,0.8-0.6,0.9c-0.3,0-1,0-1.4,0.2c-0.5,0.3-0.9,0.4-1.7,0.4s-1.4-0.3-2-0.9s-0.6-0.9-0.7-1.5s-0.3-0.6-1-0.6
	c-0.6,0.1-1.1-0.1-1.9-0.6c-0.8-0.7-0.5-0.6-1-1.1c-0.4-0.4-1.1-0.5-0.8-0.6c0.2-0.2,0.9-0.5,1.2-0.7s0.3-0.4,0.9-0.4
	c0.6,0,1,0.2,1.5,0s0.5,0,1.1,0.2s0.9,0.3,1.2,0.1c0.3-0.2,1.2-0.3,1.3-0.8c0.2-0.5,0.2-1-0.2-1.1c-0.3-0.1-0.7-0.2-1.2-0.1
	c-0.3,0-0.4-0.3-0.7-0.5c-0.1-0.1-0.2-0.1-0.3-0.1c-0.5,0-0.6-0.3-1-0.1c-0.4,0.2-0.2,0.5-0.6,0.5c-0.4,0-0.6-0.5-1.3,0
	c-0.7,0.4-0.7,0.5-1.4,0c-0.7-0.4-1.1-0.9-1.5-1.1c-0.4-0.2,0.1-0.4,0.7-0.7c0.6-0.3,1.3-0.1,1.7-0.7s0.9-1,0.7-1.4
	s-0.4-0.6-0.8-0.4s-0.6,0.3-0.9,0.4c-0.4,0.1-0.1-0.3-0.7,0.3c-0.6,0.6-1,0.8-0.8,0.2c0.2-0.6,0.4-0.6,0.1-0.9
	c-0.3-0.3-0.3-0.5-0.7-0.3s-0.8,0.2-0.6-0.7C293.7,203.6,294,203,294.5,203z"/>
<path id="XMLID_110_" class="st0" d="M333.5,203.5c0.5-0.7-0.1-0.8,0-1.5c0.1-0.6,0.6-0.7,0.7-1.2c0.1-0.5,0.3-0.5,0-0.6
	c-0.3-0.2-0.2-0.5,0.2-0.7s0.2,0.2,0.2-0.5s0.1-0.9,0.8-1.4c0.7-0.5,1.2-0.9,1.4-1.1c0.1-0.2,0.2-0.1,0.6-0.2c0.4-0.1,1-0.3,1.4-0.3
	s0.8,0,0.7,0.2s-0.2,0.7-0.6,0.9c-0.4,0.2-0.5,0.1-0.7,0.4s-0.5,0.3-0.4,0.5c0,0.2,0.2,0.4,0,0.7c-0.1,0.3,0,0.1-0.1,0.6
	s-0.2,0.6-0.3,1c0,0.4-0.1,0.9-0.1,1.2c0,0.3,0.2,0.4,0.2,0.9c0,0.5,0.1,0.4,0,1.2c-0.1,0.7-0.2,1,0.1,1.2c0.2,0.2,0.3,0.4,0.5,0.8
	c0.2,0.5,0.1,0.6,0.5,0.9s1,0.5,0.7,0.6c-0.3,0.2-0.2,0-0.6,0.3c-0.5,0.2-0.7,0.2-0.8,0.5c0,0.3-0.1,0.7,0.2,0.7
	c0.2,0,0.5,0.2,0.7,0c0.2-0.2,0.4-0.3,0.6,0.1c0.2,0.4,0,0.5,0.2,0.7c0.1,0.2,0.4,0.2,0.6,0c0.2-0.2,0.3-0.1,0.3-0.5
	c0-0.4-0.1-0.4,0-0.8c0.1-0.5,0.1-0.6,0.3-1c0.2-0.4,0.4-0.3,0.2-0.7c-0.2-0.4,0-0.7-0.5-0.8c-0.5-0.1-0.7,0.1-0.9-0.2
	s-0.6-0.5-0.5-0.7c0.1-0.3,0.4-0.5,0.6-0.8c0.3-0.3,0.6-0.4,0.8-0.8s0.5-0.7,0.2-0.7c-0.3-0.1-0.3,0-0.7,0c-0.4,0.1-0.5,0-0.6-0.3
	c0.1-0.5,0.1-0.9,0.1-1.2s-0.1-0.5,0.4-0.4c0.5,0.1,0.9,0.3,0.7,0s-0.5-0.3-0.3-0.4c0.2-0.1,0.5,0.2,0.8-0.2
	c0.2-0.4,0.7-0.7,0.2-0.7c-0.4,0-0.6,0.2-0.8,0c-0.2-0.2-0.3-0.4-0.1-0.4s0.2,0.3,0.4,0c0.2-0.3,0.3-0.4,0.3-0.6
	c0-0.3-0.1-0.3,0.2-0.3c0.2,0,0.3,0,0.3,0.4c0.1,0.4,0,0.4,0.3,0.4s0.5,0,0.5-0.5c0-0.5-0.3-0.7,0-0.9c0.3-0.3,0.4-0.3,0.8-0.4
	s0.6,0.3,0.7,0.1c0.1-0.2-0.1-0.3,0.4-0.3s0.5-0.2,0.4,0.3c-0.1,0.5,0,1.1,0,1.5c0.1,0.4,0.4,0.6,0.6,0.8s-0.1,0,0,0.6
	c0.1,0.6,0.2,0.7,0.6,1c0.3,0.3,0.1,0.4,0,0.8c-0.1,0.4-0.6,0.6-0.4,0.9c0.2,0.4,0.3,0.4,0.1,0.8c-0.3,0.4-0.2,1-0.1,1.3
	c0.1,0.2,0.2,0.3,0.6,0.4c0.3,0.1,0.6,0.1,0.7-0.2c0.1-0.3-0.1-0.4,0.2-0.7c0.3-0.3,0.3-0.4,0.5-0.6c0.2-0.2,0.2-0.4,0.4-0.3
	c0.1,0.2-0.1,0.5,0.2,0.5c0.3,0,0.5,0.1,0.6-0.1s0.1-0.3,0.4-0.4c0.3-0.1,0.2-0.3,0.5-0.2c0.3,0.1,0.6,0.1,0.4-0.2
	c-0.2-0.3-0.3-0.4-0.5-0.5c-0.2-0.1-0.2-0.4,0.2-0.5c0.3-0.1,0.3-0.1,0.6-0.3c0.4-0.2,0.5,0,1,0.2c0.6,0.2,0.5,0.2,1,0.4
	c0.5,0.2,1.1,0.4,1,0.8c-0.1,0.4,0.1,0.7,0,1.2c-0.1,0.5,0.2,0.5,0.6,0.5c0.4,0,0.8,0,0.6,0.2c-0.1,0.1-0.1,0.2-0.4,0.3
	c-0.3,0.2-0.5,0.1-0.5,0.4c0,0.2-0.1,0.2,0.2,0.5c0.3,0.4,0.6,0.8,0.7,0.5s0.1-0.5,0.3-0.7c0.2-0.2,0.4-0.4,0.3,0.2
	c-0.1,0.5,0,0.6,0,0.9s0.3,0.7,0.7,0.9c0.5,0.1,0.7,0.3,0.8,0s0.2-0.6,0-0.8c-0.2-0.2,0.1-0.3,0.3-0.4c0.2-0.1-0.1-0.4,0.2-0.5
	c0.3-0.1,0.2-0.3,0.5,0.2c0.3,0.5,0.3,0.5,0.6,0.8c0.4,0.4,0.6,0.6,0.4,0.8c-0.2,0.2-0.6,0-0.6,0.3c0,0.3-0.1,0.8,0.1,0.8
	c0.2,0,0.4,0.2,0.6,0c0.3-0.2,0.4-0.5,0.5-0.3c0.1,0.2-0.1,0.1,0,0.6c0.1,0.5,0.1,0.6,0.4,0.7c0.3,0.2,0.4,0.1,0.5,0.4
	c0.1,0.3,0.5,0.1,0.7-0.1s0-0.6,0.4-0.2c0.5,0.4,0.5,0.2,0.7,0.5c0.3,0.3,0.3,0.2,0,0.4c-0.3,0.3-0.7,0.5-0.9,0.6
	c-0.2,0.1-0.3,0.2-0.3,0.4s0.2,0.3,0.5,0.3c0.3,0,0.4-0.1,0.4,0.2c0,0.4-0.1,0.5,0.1,0.6s0.4,0.6,0.6,0.4c0.3-0.2,0.6-0.2,0.6-0.6
	s-0.2-0.5,0-0.6s0.2-0.3,0.5,0c0.3,0.3,0.2,0.2,0.6,0.5c0.4,0.4,0.5,0.3,0.4,0.5c-0.1,0.2-0.2,0.1-0.5,0.3c-0.3,0.2-0.5,0.3-0.7,0.4
	c-0.3,0.1-0.6,0.2-0.8,0.2c-0.2,0-0.6,0-0.5,0.4c0.1,0.3,0.2,0.5,0.5,0.4c0.3-0.1,0.3-0.1,0.7,0c0.4,0.1,1.2,0.2,1.4,0.4
	s0.3,0.2,0.5,0.4c0.1,0.2,0.4,0.6-0.2,0.5c-0.5-0.1-0.5-0.3-0.9-0.4c-0.4-0.1-0.7-0.2-0.9-0.1c-0.2,0.1-0.1,0-0.1,0.5
	c0,0.5-0.3,0.7-0.1,1s0.6,0.3,0.4,0.5c-0.2,0.3-0.5,0.2-0.5,0.6c0,0.4,0,0.5,0.4,0.5c0.4,0,0.8-0.2,1.1,0.2c0.2,0.3,0.8,0.9,1,1.3
	c0.1,0.4,0.7,1.2,1,1.1c0.3-0.1,0.3-0.5,0.6-0.7s0.5-0.6,0.5,0s-0.2,0.9,0,1c0.2,0.1,0.3-0.3,0.5-0.2c0.2,0.2,0.1,0,0.5,0.5
	c0.4,0.5,0.8,0.7,0.6,0.9s-0.4,0-0.5,0.3c-0.1,0.3,0.1,0.6,0.3,0.6c0.3,0,0.3-0.1,0.5-0.3s0.2-0.3,0.4-0.2c0.2,0.1,0.6,0.1,0.5,0.2
	c-0.1,0.1-0.4,0-0.6,0.3c-0.1,0.2-0.4,0.2-0.4,0.5s0.1,0.5,0.4,0.5c0.3,0,0.5,0.1,0.8,0s0.4-0.2,0.9,0c0.5,0.2,0.6,0,0.7,0.4
	s0.3,0.2,0,0.7s-0.5,0.4-0.7,0.4c-0.2,0-0.4,0.1-0.4,0.4c0,0.3,0.6,0.4,0.5,0.5c-0.1,0.1-0.1,0.2-0.5,0.7c-0.4,0.5-0.4,0.9-0.5,0.9
	c-0.1,0-0.2-0.4-0.4-0.4c-0.3,0-0.5-0.1-0.5,0.2c0,0.3,0.1,0.3,0.2,0.6s0.3,0.2,0.1,0.6c-0.1,0.4-0.2,0.8-0.3,0.9
	c-0.1,0.1-0.6-0.2-0.9-0.7c-0.3-0.5-0.6-0.7-0.9-1.1c-0.4-0.5-0.5-0.3-0.4-0.8c0.1-0.5,0.3-0.7-0.1-0.7c-0.4,0-0.5,0-0.8-0.6
	c-0.3-0.5-0.3-0.3-0.7-0.5c-0.4-0.2-0.1-0.8-0.4-0.9c-0.3-0.2-0.3-0.4-0.6-0.2c-0.3,0.1-0.2,0.5-0.5,0.4s-0.1-0.4-0.6,0
	c-0.5,0.5-0.9,0.3-0.6,0.7c0.3,0.5,0.4,0.8,0.6,0.9c0.2,0.1,0.5,0.4,0.3,0.4c-0.2,0.1-0.3-0.1-0.5,0.2c-0.2,0.3-0.4,0.5-0.3,0.7
	c0,0.2,0.2,0.3,0.5,0.2c0.3-0.1,0.4-0.2,0.4,0c0,0.2-0.3,0.5-0.1,0.7c0.2,0.2,0.3,0.3,0.6,0.7c0.3,0.4,0.3,0.4,0.3,0.7
	c0,0.3,0.1,0.6,0.4,0.6c0.3-0.1,0.5-0.3,0.6,0c0.1,0.3-0.1,0.4,0.4,0.4c0.5,0,0.6,0,0.7,0.2c0.1,0.2,0.7,0.3,0.5,0.5
	c-0.2,0.2-0.9,0.6-0.6,0.7s0.5,0.5,0.8,0.7c0.3,0.2,0.3,0.3,0.4,0.6c0.1,0.3,0.3,0.4,0.1,0.7c-0.2,0.4-0.3,0.6-0.6,0.8
	c-0.3,0.2-0.3,0.1-0.2,0.4s0.3,0.4,0.1,0.7c-0.1,0.3,0,0.3-0.6,0c-0.6-0.3-0.6-0.3-1-0.5c-0.4-0.2-0.8-0.2-1-0.6
	c-0.2-0.4-0.1-0.5-0.5-0.5s-0.7,0.1-0.9-0.3s-0.1-0.4-0.4-0.7c-0.3-0.3-0.4-0.5-0.6-0.2c-0.2,0.3-0.6,0.3-0.4,0.6
	c0.1,0.4,0.3,0.4,0.8,1c0.5,0.6,0.8,0.5,1.1,0.9c0.2,0.4,0.2,0.3,0.6,0.7c0.4,0.4,0.2,0.5,0.6,0.6c0.5,0.2,0.6,0.3,0.6,0.5
	c0,0.2,0.3,0.6,0.1,0.8c-0.2,0.2-0.4,0.6-0.5,0.5c-0.1-0.2-0.1-0.3-0.3-0.3c-0.2,0-0.4,0.1-0.8,0c-0.4-0.1-1-0.5-1.3-0.7
	c-0.3-0.2-1-0.9-1.4-1.1c-0.5-0.3-0.4-0.3-0.6-0.5c-0.2-0.2,0-0.4-0.4-0.2c-0.3,0.2-0.3,0.5-0.6,0.3c-0.4-0.2-0.6-0.6-0.9-0.8
	s-0.1-0.2-0.5-0.5s-0.3-0.3-0.1-0.4c0.2-0.1,0.3-0.3,0.3-0.6s0-0.6-0.4-0.6c-0.4-0.1-0.6-0.2-0.8-0.1s-0.9-0.4-1.2-1
	c-0.3-0.7-0.6-0.9-0.6-1.2c-0.1-0.3-0.2-0.4-0.6-0.4c-0.4,0-0.2-0.2-0.6-0.4c-0.3-0.2-0.5-0.4-0.7-0.3c-0.3,0.2-0.5,0.2-0.3,0.6
	c0.2,0.4,0.4,0.8,0.2,0.6c-0.2-0.1-0.2-0.2-0.5-0.3s-0.6-0.3-0.8-0.1c-0.3,0.3-0.3,0.6-0.6,0.8c-0.3,0.2-0.8,0.1-1-0.1
	s-1.1-0.2-1.3-0.6s-0.3-0.7,0-0.9c0.3-0.2,0.3-0.3,0.7-0.6s0.5,0.1,0.6-0.5c0-0.6,0-0.9,0.5-0.5c0.5,0.4,0.8,0.6,1.2,0.5
	s0.3-0.1,0.7,0.1c0.4,0.2,0.9,0.2,1.3-0.1c0.4-0.3,0.6-0.4,0.9-0.6c0.3-0.2,0.5,0,0.4-0.6c-0.1-0.6-0.4-1.3-0.7-1.3
	c-0.4-0.1-0.3-0.2,0.1-0.6s0.3-1,0.6-1c0.3,0,0.6,0.4,0.9,0.2c0.3-0.3,0.3-0.1,0.2-0.7s-0.2-1,0.3-1.2c0.5-0.3,0.8-0.5,0.8-0.8
	s-0.4-0.9-0.6-1.4c-0.1-0.6-0.5-0.4-0.4-1.1c0.1-0.7-0.1-1.1-0.3-1.3s-0.9-0.1-0.9-0.4c0-0.3,0.1-0.6-0.1-0.9s-0.3-0.4-0.5-0.3
	c-0.2,0.1-0.2,0.3-0.4,0.3c-0.1,0-0.3-0.2-0.3-0.4s0.1-0.1,0.2-0.4c0.1-0.3,0.5-0.3,0.4-0.6c-0.1-0.3-0.2-0.7-0.6-0.5
	s-0.3,0-0.4,0.3c-0.1,0.3-0.4,0.4-0.7,0.4c-0.4,0-0.6,0.1-0.9,0.3c-0.3,0.2-0.4,0.6-0.5,0.4c-0.1-0.2-0.3-0.3-0.3-0.6
	c0-0.4,0.1-0.8,0.2-0.6c0.1,0.1,0.5,0.4,0.6,0.3c0.1-0.1,0.2-0.1,0.3-0.4c0.1-0.3,0.3-0.5,0-0.7c-0.3-0.2-1-1.3-1.4-1.7
	c-0.4-0.4-0.5-0.5-0.6-0.3c-0.2,0.2-0.6,0.3-0.5-0.2c0.1-0.5,0.2-0.6-0.4-1.1c-0.6-0.5-0.5-0.7-0.8-1s-0.6-1-1-0.8s-0.9,0.3-0.6,0.6
	c0.3,0.4,0.6,0.4,0.6,0.8c0,0.4,0,0.5-0.1,0.9c-0.2,0.4-0.2,0.7-0.7,0.4c-0.5-0.3-1.2-0.8-1.5-0.9c-0.3-0.1-0.8-0.5-1.1-0.4
	c-0.3,0.1-0.5,0.2-0.3,0.4c0.2,0.2,0.3,0.2,0.6,0.4s0.1,0.5-0.1,0.5c-0.3,0-0.3-0.2-0.5,0.1s-0.3,0.4-0.5,0.1
	c-0.2-0.3-0.5-0.7-1-0.5s-1.4,0.2-1.8-0.1c-0.4-0.2-0.7-0.2-1.6-0.3c-0.9-0.1-1.1-0.5-1.2-1s0.1-0.6-0.4-0.6c-0.5,0-0.3,0.1-0.7,0.4
	c-0.4,0.3-0.6,0.7-1,0.2s-1.2-1-1.4-1.3s-0.5-0.5-0.5-0.7c0.1-0.2,0.3-0.3,0.1-0.4c-0.2-0.1-0.3-0.4,0-0.3c0.3,0,0.6,0,0.8,0.2
	c0.2,0.2,0.5,0.4,0.8,0.4c0.3,0,0.5-0.1,0.8-0.1c0.3-0.1,0.7-0.7,0.5-0.9c-0.2-0.2,0-0.4-0.6-0.7c-0.6-0.3-0.7-0.2-1.2-0.2
	c-0.5-0.1-1.3,0-1.5-0.1s-0.3-0.2-0.6-0.5c-0.4-0.3-0.3-0.2,0-0.6c0.3-0.4,0.3-0.8,0.2-1.1s-0.3-0.5-0.1-0.7
	C333.4,204,333.5,203.5,333.5,203.5z"/>
<path id="XMLID_109_" class="st0" d="M427.9,229.2c0,0,0,0.7,0.2,1s0.5,0.4,0.5-0.2c0-0.7,0.2-1.1,0.4-1.1c0.1,0,0.2,0.5,0.4,0.5
	c0.2,0,0.3-0.4,0.2-0.8s0.3-0.5,0-0.7s0.1-0.7,0.1-0.7s0.2,0.5,0.4,0.8s0,0.5,0.3,0.6c0.3,0.1,0.7,0,0.5-0.4c-0.2-0.4-0.2-0.7,0-0.7
	s0.3-0.2,0.5-0.3c0.2-0.1,0.3,0.3,0.4,0.5s-0.1,1,0.2,1.1c0.3,0.1,0.5,0.4,0.6-0.2c0.1-0.6,0.3-0.6,0-0.9c-0.3-0.3-0.2-0.9,0-0.6
	s0.2,0.6,0.5,0.6c0.2,0,0.3,0.1,0.3-0.2c0-0.4,0.6-0.4,0.9-0.4c0.3,0.1,0.8-0.1,0.7-0.4s-0.3-0.9,0-0.7c0.3,0.2,0.4,0.6,0.5,0.9
	c0.1,0.3,0.2,0.5,0.7,0.4s0,0.3,0.3,0.5c0.4,0.2,0.2,0,0.2,0.5c0,0.5-0.1,0.7,0.3,0.6c0.4-0.1,0.4,0,0.8,0.2
	c0.4,0.2,0.5,0.4,0.3,0.7s0,0.2,0.1,0.4c0.1,0.2-0.8,0-0.6,0.5s0.5,0.3,0.6,0.6c0.1,0.3-0.1,0.5-0.4,0.5c-0.2,0-0.6,0-0.6,0.3
	c0,0.3,0.3,0.7,0,0.9c-0.2,0.2-0.7,0.3-1,0.2s-0.1-0.4-0.5,0c-0.4,0.4-0.6-0.2-0.7,0.2s0,0.6-0.6,0.9c-0.5,0.3-1.3,0.1-1.5,0.4
	c-0.3,0.2-0.4,0.7-0.6,0.9c-0.2,0.2-0.5,0.5-0.9,0.4c-0.3-0.1-0.2-0.5-0.8-0.4s-1-0.1-1.5-0.5c-0.5-0.3-0.8-0.6-1-0.7s0,0.1-0.5,0.2
	s-0.3,0.2-0.9,0.2c-0.5,0-0.7-0.4-0.4-0.5s0.5,0.1,0.9-0.2c0.4-0.4,0.5-0.6,0.2-0.8c-0.4-0.2-0.4-0.4-0.1-0.4s0.4-0.5,0.2-0.5
	c-0.2,0-0.2-0.1-0.4,0.1c-0.2,0.2-0.6,0.2-0.6,0s0-0.6-0.3-0.6c-0.3,0-0.3-0.2-0.6,0c-0.3,0.2-0.6-0.1-0.6-0.4
	c0-0.2,0.2-0.4,0.9-0.3s0.7,0.2,1,0c0.3-0.2,0.6-0.4,0.5-0.6s-0.1-0.2-0.5,0c-0.4,0.2-0.2-0.3-0.1-0.4s0.4,0,0.3-0.3
	c-0.1-0.4-0.3-0.6-0.5-0.6c-0.2,0-0.5-0.5-1-0.1c-0.5,0.4-0.7,0.4-1,0.5c-0.3,0.2-0.4-0.5-0.4-0.5s0.4,0.1,0.5,0
	c0.2-0.1,0.3,0,0.3-0.3c0-0.2,0-0.4-0.2-0.5c-0.2,0,0.3-0.3,0.5-0.5c0.2-0.2,0.5,0.3,0.8,0.5c0.3,0.2,0.4-0.1,0.4-0.4
	c0-0.3-0.1-0.9,0.1-0.8c0.2,0,0.6,0,0.5,0.3c0,0.2-0.1,0.5,0.4,0.7c0.5,0.2-0.4,0.3-0.5,0.6c-0.1,0.3,0.1,0.6,0.3,0.5
	C427.8,228.6,427.9,229.2,427.9,229.2z"/>
<circle id="XMLID_108_" class="st2" cx="248" cy="244.5" r="223.6"/>
<path id="XMLID_107_" class="st3" d="M70.8,285.6c0,0-16.3,5.1-21.1-13.6c5.8-19.6,43.2-140.3,65.3-157.3
	c16.4-10.7,24.2-11.9,46.1-9.8c18.8,2,33.5,9.8,40.2,20.8s32.5,74.2,56.9,150.3c-5.8,10.8-20.4,9.5-20.4,9.5"/>
<path id="XMLID_106_" class="st3" d="M111,189.4L59.1,319.2c0,0,10.6,12.2,28.2,11.5"/>
<line id="XMLID_105_" class="st4" x1="118.8" y1="224.6" x2="103.1" y2="256.7"/>
<line id="XMLID_104_" class="st4" x1="189.2" y1="226.2" x2="204.5" y2="254.9"/>
<path id="XMLID_103_" class="st5" d="M187.6,280c4.8-9-8.1,87.3-8.1,87.3"/>
<path id="XMLID_102_" class="st6" d="M179.8,146.7c0,0,3-15.3-1.4-21.9c-6.2-9.4-21-10-38.8-7.3c-22.3,3.4-17.2,31.2-15.7,33
	C123.9,150.5,149.9,118.7,179.8,146.7z"/>
<g id="XMLID_100_">
	<path id="XMLID_101_" class="st7" d="M251.3,178.5c0,0-4-6.6,3.8-7.8c5.1,1.3,8.2,9.5,8.3,14.1l0.2,2.6l-2.9,1
		c-4.5,1-13.2,0.2-15.8-4.4c-0.8-7.8,6.6-5.6,6.6-5.6"/>
</g>
<g id="XMLID_98_">
	<path id="XMLID_99_" class="st7" d="M279.7,156.2c0,0,5.8-5.1,8.4,2.4c-0.4,5.3-7.9,9.7-12.5,10.6l-2.5,0.7l-1.5-2.7
		c-1.8-4.3-2.5-13,1.7-16.3c7.5-2.1,6.7,5.6,6.7,5.6"/>
</g>
<g id="XMLID_96_">
	<path id="XMLID_97_" class="st7" d="M250.9,133.8c0,0-0.3-7.7,7.1-5c3.9,3.6,2.5,12.3,0.4,16.4l-1,2.4l-3.1-0.5
		c-4.5-1.3-11.7-6.3-11.6-11.6c3.1-7.2,8.5-1.7,8.5-1.7"/>
</g>
<path id="XMLID_95_" class="st3" d="M194.4,189.8l57.1,126.1c0,0-6.2,15.8-21.3,13.7l-11.8,0.2"/>
<path id="XMLID_94_" class="st6" d="M105.8,181.9c0,0-0.1-12.9,3.8-22.5c0,0,31.1-53,78-13.6c0,0,1.7,1.7,11.7,19.3l4.3,16.7"/>
<polyline id="XMLID_93_" class="st6" points="179.5,181.9 194.7,187.1 195.8,181.9 "/>
<path id="XMLID_92_" class="st8" d="M82.2,323.6"/>
<path id="XMLID_91_" class="st8" d="M82.2,323.6"/>
<path id="XMLID_90_" class="st9" d="M359,260"/>
<g id="XMLID_61_">
	<path id="XMLID_89_" class="st10" d="M373.2,202.4c0,0-0.6,12.7,0,15.8c0.6,3.1,2.8,13.7,7.6,15.8c0,0-25.6,31.4-64.1,0
		c0,0,7.6-8.1,9.6-11.8c2-3.7,0-19.9,0-19.9"/>
	<path id="XMLID_88_" class="st11" d="M309.9,131.3c0,0-1.6,43.3,6.8,56.4c8.4,13.1,31.4,58,62.4,5.8c11.5-30.5,4-70.4,4-70.4"/>
	<path id="XMLID_87_" class="st12" d="M391.7,118c-0.8,7.7-1.6,16-4.8,20.8c-6,9.2-23.9,10.9-65,0.2c-16.4-3.9-10,2-10,2l-6.4,25.4
		c-5.3,4.5-9.7-5.9-9.7-5.9s-6.5-39.6,3.2-45.9c10.6-6.9,65.8-4.5,73.6-2.8c0,0,8.7,3.7,12.8,2.5C389.7,113,392.7,108.8,391.7,118z"
		/>
	<path id="XMLID_86_" class="st13" d="M349.6,254.5l-30.8-32c0,0-27.9,5-38.3,24c-10.7,36.9,0,115.9,0,115.9h141.6
		c0,0,9.4-109.2-3.1-119.9c-11.5-9.7-37.8-20-37.8-20L349.6,254.5"/>
	<polygon id="XMLID_63_" class="st14" points="351.7,242.5 320.1,218.1 316.3,225.5 339.4,254.7 	"/>
	<polygon id="XMLID_62_" class="st14" points="364.5,254.7 386.1,221.6 379.4,216.4 350.9,242.8 	"/>
</g>
<path id="XMLID_58_" class="st15" d="M184.1,362.5c35.4,0,39.8-1,39.8-1s-4-87.1-12.3-100.1c-7.7-12.2-36.9-11.4-36.9-11.4
	l-4.2-17.3h-31l-2.9,17.5c0,0-22.3,1.8-30,6.6c-7.6,4.8-12.3,30.9-12.3,30.9s-13.6,75.5-7.3,74.8c8.8-1,31.8-1,31.8-1"/>
<path id="XMLID_53_" class="st15" d="M176.3,344.8"/>
<path id="XMLID_52_" class="st15" d="M136.6,250.1l2.9-17.5h31l4.2,17.3C174.7,250,156.6,261.6,136.6,250.1z"/>
<path id="XMLID_51_" class="st11" d="M194.7,187.1c0,0-1-10.6,8.9-5.3c3.4,3.3-1.4,25.8-8.9,18.2c-42.8,86.8-81.8,0-81.8,0
	c-3.4,1.7-8.1,2.6-9.2-8.3c-4.1-11.2,3.4-11.2,3.4-11.2s17,10.2,34.8-17.8C141.8,162.7,154.7,174.6,194.7,187.1z"/>
<path id="XMLID_121_" class="st11" d="M377.6,166.7c0,0-1.5-13.6,12.6-6.8c1.6,3.9,4.7,29-12.6,23.2"/>
<path id="XMLID_120_" class="st11" d="M316.6,165.9c0,0,1.5-13.6-12.6-6.8c-1.6,3.9-4.7,29,12.6,23.2"/>
</svg>
