<?xml version="1.0" encoding="utf-8"?>
<!-- Generator: Adobe Illustrator 19.0.0, SVG Export Plug-In . SVG Version: 6.00 Build 0)  -->
<svg version="1.1" id="Layer_1" xmlns="http://www.w3.org/2000/svg" xmlns:xlink="http://www.w3.org/1999/xlink" x="0px" y="0px"
	 viewBox="0 0 500 500" style="enable-background:new 0 0 500 500;" xml:space="preserve">
<style type="text/css">
	.st0{fill:#FDD1A8;}
	.st1{fill:#242424;}
	.st2{fill:#ECF0B9;}
	.st3{fill:#404040;}
	.st4{fill:#9FD3A2;}
	.st5{fill:#EFCD83;}
	.st6{fill:#FFF8B6;}
	.st7{fill:#62C3A2;}
</style>
<circle id="XMLID_87_" class="st0" cx="249.6" cy="252.3" r="223.6"/>
<path id="XMLID_420_" class="st1" d="M154.2,114.2v41c0,0,134.6,10.4,180.6-2c0-28.7,0-39.1,0-39.1"/>
<rect id="XMLID_417_" x="121.6" y="104" class="st2" width="5.5" height="39.5"/>
<polygon id="XMLID_421_" class="st2" points="117.4,143.5 131.3,143.5 127.1,158.2 121.6,158.2 "/>
<polygon id="XMLID_422_" class="st2" points="131.3,202.5 117.4,202.5 121.6,159.4 127.1,159.4 "/>
<polygon id="XMLID_416_" class="st1" points="389.2,99.8 245.4,130.2 101.7,99.8 245.4,69.4 "/>
<path id="XMLID_86_" class="st3" d="M206.3,271c0,0-20.3,32.4-31.1,35.3c-10.8,2.8-24.3,0-24.3,0s0,0,12.8-11
	c12.8-11,11.5-53.9,11.5-53.9c-9.3,3.5-16.7-5.6-21.2-27.3c-4.5-21.7,12.2-26.2,12.2-26.2l5.6-30.9l147.9,0.4l7.3,32.2
	c0,0,20.6,0,10,33.4c-9.5,19.1-9.5,17.1-17.8,19.1"/>
<path id="XMLID_63_" class="st4" d="M355.8,428.8c0,0,0.7-64.9-11.2-84.7c-17.1-21.7-56.7-48.8-56.7-48.8l-40.1,60.9L211,298.7
	c0,0-59.1,30.8-64.3,55.9c-5.2,25.1-6.9,74.3-6.9,74.3"/>
<path id="XMLID_62_" class="st3" d="M296.4,261.2l9.4-20.4l13.6,1.2c0,0,8.8,43.1,20.1,55.5c11.4,12.5,11.4,12.5,11.4,12.5
	s-13.8,1.2-24.1-3S296.4,261.2,296.4,261.2"/>
<path id="XMLID_61_" class="st4" d="M211,298.7"/>
<path id="XMLID_58_" class="st4" d="M286.9,273.6"/>
<path id="XMLID_53_" class="st5" d="M286.9,273.6c-2,12.8,0.9,21.7,0.9,21.7l-40.1,60.9L211,298.7c0,0,4.3-5.2,2.6-19.9"/>
<path id="XMLID_52_" class="st6" d="M313.8,208.5c0,0-1.7-17.8,14.5-8.9c5.6,5.6-2.2,43.4-14.5,30.6c-69.6,146.4-133.1,0-133.1,0
	c-5.6,2.8-13.2,4.5-15-13.9c-6.7-18.9,5.6-18.9,5.6-18.9s27.6,17.2,56.5-30.1C227.8,167.3,248.7,187.4,313.8,208.5z"/>
<path id="XMLID_51_" class="st7" d="M247.8,356.2L226.6,323c0,0,20.5,14.5,43.1,0"/>
</svg>
