<?xml version="1.0" encoding="utf-8"?>
<!-- Generator: Adobe Illustrator 19.0.0, SVG Export Plug-In . SVG Version: 6.00 Build 0)  -->
<svg version="1.1" id="Layer_1" xmlns="http://www.w3.org/2000/svg" xmlns:xlink="http://www.w3.org/1999/xlink" x="0px" y="0px"
	 viewBox="0 0 500 500" style="enable-background:new 0 0 500 500;" xml:space="preserve">
<style type="text/css">
	.st0{fill:#FDD1A8;}
	.st1{fill:#80BEE8;}
	.st2{fill:#FFFFFF;}
	.st3{fill:#F0D68D;}
	.st4{fill:#FFF8B6;}
	.st5{fill:#404040;}
</style>
<circle id="XMLID_96_" class="st0" cx="252" cy="250" r="223.6"/>
<g id="XMLID_93_">
	<circle id="XMLID_95_" class="st1" cx="303.9" cy="89.7" r="33.1"/>
	<circle id="XMLID_94_" class="st2" cx="303.9" cy="89.7" r="19.7"/>
	<rect id="XMLID_92_" x="296.7" y="49.7" class="st1" width="14" height="14"/>
	
		<rect id="XMLID_91_" x="317.7" y="57.1" transform="matrix(0.7071 0.7071 -0.7071 0.7071 140.3936 -210.8147)" class="st1" width="14" height="14"/>
	
		<rect id="XMLID_90_" x="330.3" y="76.1" transform="matrix(0.3178 0.9481 -0.9481 0.3178 308.8617 -263.1292)" class="st1" width="14" height="14"/>
	
		<rect id="XMLID_86_" x="326.8" y="98.9" transform="matrix(0.8851 0.4654 -0.4654 0.8851 87.6486 -143.1818)" class="st1" width="14" height="14"/>
	
		<rect id="XMLID_63_" x="310.3" y="114.2" transform="matrix(0.4349 0.9005 -0.9005 0.4349 288.4356 -217.3047)" class="st1" width="14" height="14"/>
	
		<rect id="XMLID_89_" x="275.9" y="56.3" transform="matrix(-0.7071 0.7071 -0.7071 -0.7071 527.6775 -92.0312)" class="st1" width="14" height="14"/>
	
		<rect id="XMLID_88_" x="264.1" y="76.1" transform="matrix(-0.3178 0.9481 -0.9481 -0.3178 435.9971 -147.5328)" class="st1" width="14" height="14"/>
	
		<rect id="XMLID_87_" x="266.8" y="99.7" transform="matrix(-0.8851 0.4654 -0.4654 -0.8851 565.7579 73.6466)" class="st1" width="14" height="14"/>
	
		<rect id="XMLID_62_" x="283.5" y="114.9" transform="matrix(-0.4349 0.9005 -0.9005 -0.4349 526.7042 -86.6462)" class="st1" width="14" height="14"/>
</g>
<path id="XMLID_61_" class="st3" d="M450.8,324.1l-12.7-19.9c0,0,12.3,8.6,25.7,0"/>
<path id="XMLID_58_" class="st3" d="M293.1,221.4c0,0-0.9,18.3,0,22.9c0.9,4.5,4,19.8,11,22.9c0,0-37.1,45.4-92.7,0
	c0,0,11-11.6,13.9-17s0-28.8,0-28.8"/>
<g id="XMLID_207_">
	<path id="XMLID_53_" class="st4" d="M307.4,106.7c0,0,10.9,57.7-5.8,101.7c-44.8,75.5-78.1,10.5-90.3-8.4s-9.9-81.5-9.9-81.5"/>
	<path id="XMLID_52_" class="st1" d="M261.3,280.5l-44.2-26.3c0,0-42.9-3.4-58,24c-15.5,53.3,0,167.5,0,167.5h204.7
		c0,0,13.6-157.9-4.6-173.3c-16.6-14.1-60.7-18.2-60.7-18.2L261.3,280.5"/>
	<path id="XMLID_51_" class="st5" d="M219.6,124.8c0,0,40.2,19.7,75.2,1.6c14.8,26.5,14.8,26.5,14.8,26.5l10.4-26.5l-9.5-30.7
		c0,0-59.8-26.6-110.4,0c0,0-4.8,6.6-4.8,17.9s4.8,39.4,4.8,39.4"/>
	<path id="XMLID_118_" class="st4" d="M305.9,161.4c0,0-1.7-17.9,14.5-8.9c1.8,5.1,5.3,38.2-14.5,30.6"/>
	<path id="XMLID_119_" class="st4" d="M207.3,161.2c0,0,1.7-17.9-14.5-8.9c-1.8,5.1-5.3,38.2,14.5,30.6"/>
</g>
</svg>
